<?xml version="1.0" standalone="no"?>
<!DOCTYPE svg PUBLIC "-//W3C//DTD SVG 1.1//EN" "http://www.w3.org/Graphics/SVG/1.1/DTD/svg11.dtd" >
<!--
2013-9-30: Created.
-->
<svg>
<metadata>
Created by iconfont
</metadata>
<defs>

<font id="jeicon" horiz-adv-x="1024" >
  <font-face
    font-family="jeicon"
    font-weight="500"
    font-stretch="normal"
    units-per-em="1024"
    ascent="896"
    descent="-128"
  />
    <missing-glyph />
    
    <glyph glyph-name="calculate-on" unicode="&#59720;" d="M512 896c282.781538 0 512-229.218462 512-512S794.781538-128 512-128 0 101.218462 0 384 229.218462 896 512 896z m-78.572308-384.118154h-27.017846v-80.777846H334.178462v-25.915077h72.231384v-148.598154h27.017846v148.598154h68.371693v25.915077H433.427692v80.777846z m241.23077 1.378462c-5.789538-17.92-15.438769-34.737231-28.947693-50.451693l20.125539-12.957538h-107.52v-111.931077h34.461538v-8.546462l-0.551384-5.789538h-65.339077v-22.882462h57.344c-0.551385-1.102769-1.378462-2.205538-2.481231-3.584-7.168-7.719385-20.125538-14.336-39.148308-19.574153l13.508923-20.676923c21.504 6.065231 36.942769 14.336 46.592 25.363692 4.411077 5.238154 7.995077 11.303385 10.752 18.471384h73.334154v-44.110769h25.639385v44.110769h60.376615v22.882462h-60.376615v14.336h32.256v111.931077H667.766154c6.065231 7.168 11.854769 15.163077 16.817231 23.709538h18.195692c4.962462-7.168 9.649231-14.336 13.784615-22.055384l21.228308 7.719384a114.609231 114.609231 0 0 1-9.373538 14.336h41.078153v22.055385H695.335385c1.378462 3.859692 2.756923 7.995077 4.411077 12.130462l-25.088 5.513846z m-363.362462-83.810462h-63.684923v-25.088h38.596923v-101.454769c0-5.513846-2.481231-10.200615-7.168-14.060308l9.924923-23.433846a398.769231 398.769231 0 0 1 56.792615 44.386462l-6.892307 26.742153c-9.649231-9.097846-18.747077-17.368615-27.569231-24.536615v117.444923z m375.492923-91.529846v-14.336h-68.371692l0.275692 5.789538v8.546462h68.096z m32.256 32.531692v-12.681846h-135.089231v12.681846h135.089231z m0 29.499077v-11.303384h-135.089231v11.303384h135.089231z m0 30.050462v-12.130462h-135.089231v12.130462h135.089231z m-156.041846 83.810461c-7.168-20.401231-19.022769-39.148308-35.564308-56.792615l21.779693-13.784615c7.995077 8.822154 15.163077 18.747077 21.504 29.223384h18.747076c4.962462-6.616615 9.373538-13.508923 13.233231-20.676923l21.504 7.719385a149.051077 149.051077 0 0 1-8.546461 12.957538h30.601846v22.055385H582.301538c1.654154 4.411077 3.584 8.822154 5.513847 13.784615l-24.812308 5.513846z m-279.000615-4.411077l-18.195693-17.92c19.574154-14.336 34.737231-28.120615 45.764923-41.078153l17.92 18.195692c-12.406154 13.784615-27.569231 27.293538-45.48923 40.802461z"  horiz-adv-x="1024" />

    
    <glyph glyph-name="preview-on" unicode="&#59721;" d="M512 896c282.781538 0 512-229.218462 512-512S794.781538-128 512-128 0 101.218462 0 384 229.218462 896 512 896z m146.392615-523.067077h-25.639384v-19.298461c-1.378462-19.298462-9.097846-35.012923-22.882462-47.143385-14.336-11.303385-41.078154-20.676923-80.226461-28.120615l14.887384-23.158154c39.148308 7.995077 67.544615 19.298462 85.188923 34.185846a86.764308 86.764308 0 0 1 25.363693 42.732308v-40.802462c0-19.849846 9.649231-29.774769 28.947692-29.774769h53.76c10.476308 0 18.195692 2.205538 23.158154 6.616615 5.513846 4.962462 9.373538 19.574154 11.303384 43.835077l-23.98523 7.995077c-1.102769-16.541538-2.756923-26.742154-5.238154-30.050462a12.110769 12.110769 0 0 0-9.924923-4.411076h-41.353846c-7.719385 0-11.579077 3.859692-11.579077 11.303384v44.662154h-23.158154c0.551385 3.859692 1.102769 7.995077 1.378461 12.130462v19.298461z m-215.04 42.732308h-25.363692v-48.797539c-0.827077-22.331077-5.789538-40.526769-14.887385-54.587077-9.649231-13.233231-27.569231-23.985231-53.484307-32.531692l14.336-22.331077c27.017846 9.097846 46.867692 21.779692 58.998154 38.321231 12.406154 17.644308 19.298462 41.353846 20.40123 71.128615v48.797539z m10.476308-94.838154l-16.541538-16.265846c20.401231-16.817231 36.115692-32.531692 47.419077-47.143385l18.195692 18.195692c-13.233231 14.887385-29.774769 30.050462-49.073231 45.213539z m-104.487385 181.405538h-94.011076v-24.260923h66.166153a221.144615 221.144615 0 0 0-22.882461-30.601846 575.212308 575.212308 0 0 1-18.471385 19.022769l-19.298461-12.130461a525.981538 525.981538 0 0 0 35.288615-37.218462h-48.521846v-24.260923h37.494154v-103.108923c0-6.065231-2.481231-9.097846-6.892308-9.097846-7.719385 0-15.438769 0.551385-23.709538 1.654154l5.238153-23.709539h27.017847c15.438769 0 23.158154 8.546462 23.158153 25.088v109.174154h22.60677a199.837538 199.837538 0 0 0-12.406154-33.910154l21.504-8.270769c6.065231 12.130462 11.027692 28.947692 15.438769 50.451692v15.990154H324.529231c-3.308308 4.135385-6.892308 8.546462-10.752 13.508923 12.681846 14.060308 24.536615 31.153231 35.564307 51.27877v20.40123z m376.044308-90.151384h-154.387692v-100.627693h25.915077v76.918154h102.833231v-76.642461h25.639384v100.352z m-225.240615 90.151384h-137.570462v-24.536615h57.895385c-1.102769-8.546462-2.205538-16.817231-3.859692-25.088h-46.040616v-132.883692h24.536616v109.725538h72.507076v-109.725538h24.536616v132.883692H441.698462c1.654154 7.995077 3.308308 16.265846 4.411076 25.088h54.035693v24.536615z m206.217846-37.769846l-16.265846-15.163077a237.883077 237.883077 0 0 0 43.283692-35.288615l16.265846 18.471385c-13.233231 12.406154-27.569231 23.158154-43.283692 31.980307z m-84.361846 46.867693H596.086154v-90.427077h25.915077v90.427077z m50.176 2.205538a166.4 166.4 0 0 0-39.975385-65.890462l19.574154-18.195692c11.303385 10.476308 21.228308 23.709538 29.774769 39.424h87.394462v23.985231h-76.642462l4.962462 14.060308-25.088 6.616615z m-104.763077-13.508923h-25.363692v-70.577231h25.363692v70.577231z"  horiz-adv-x="1024" />

    
    <glyph glyph-name="user-zz" unicode="&#59717;" d="M213.112438 589.979053c0 180.223376 154.623465 324.134263 337.721908 304.166332 142.374892-15.359947 252.257588-125.990948 268.01138-268.838454A306.490016 306.490016 0 0 0 698.801834 344.613749a37.848484 37.848484 0 0 1-9.05843-9.727967A275.336893 275.336893 0 0 1 571.077968 108.306874a275.533815 275.533815 0 0 1 133.670922-236.346258L65.14495-128C36.157974-128 14.260203-102.400089 20.876796-74.752184c31.507583 129.062938 110.867309 237.094564 217.678016 306.253709 25.954372 17.919938 54.42935 37.375871 86.960929 52.223819 25.442373 11.775959 29.538359 46.07984 7.640589 63.015167A306.017402 306.017402 0 0 0 213.073054 589.900284zM807.384843 305.22927a196.922395 196.922395 0 1 0 0-393.844791 196.922395 196.922395 0 0 0 0 393.844791z m42.889697-60.573329c-2.363069-13.666414-4.726137-26.978368-7.089206-40.014631h-46.473685v-20.75562h42.29893c-2.363069-11.263961-5.001829-22.527922-7.679973-34.067575h-43.165389v-20.479929h38.16356c-5.041213-19.534702-10.633809-38.202945-16.541481-56.595496h99.051965c-10.358118-17.171633-24.260839-33.476807-42.023239-49.230599a424.643453 424.643453 0 0 1-43.480465 21.661463l-11.224577-16.895941c32.53158-13.62703 64.196701-32.610349 94.916595-56.319805l11.815343 18.11686c-10.909501 8.270741-22.449153 15.990098-34.579572 23.394381 20.991927 20.164853 36.391259 40.290322 46.473685 60.455175v17.801785h-94.365212c3.820294 11.539652 7.679973 24.024532 11.224577 37.612177h96.098129v20.479929H852.676994l7.679973 34.067575h76.012045v20.75562h-71.876675c2.363069 12.13042 4.450446 24.890991 6.813515 37.927253l-20.991927 2.087378z m-135.482608-0.630152c-2.914451-13.62703-5.592596-26.938984-8.546432-39.384479h-34.894648v-20.75562h29.538359c-7.364898-27.25406-15.359947-49.50629-23.906379-67.268691l4.411062-18.983319h49.703213V53.168604c-18.90455-3.229527-38.754327-6.222748-60.061331-8.861508l2.678145-21.070696c20.086084 2.678145 39.030019 5.631981 57.383186 8.900892v-60.179484h20.40116v64.314854c14.178412 2.99322 27.805442 6.537824 41.117396 10.082427v20.164853c-12.996878-3.268912-26.623908-6.537824-41.117396-9.452275v40.566013h32.807271v19.298395h-32.807271v45.01646h-20.40116v-45.055844h-32.53158c8.270741 19.298395 15.950714 41.511241 23.03992 66.953614h61.518557v20.795005h-56.162268c2.63876 11.539652 5.316905 23.709456 7.955665 36.430643l-20.086084 2.953836z"  horiz-adv-x="1024" />

    
    <glyph glyph-name="user-lz" unicode="&#59718;" d="M213.112438 589.979053c0 180.223376 154.623465 324.134263 337.721908 304.166332 142.374892-15.359947 252.257588-125.990948 268.01138-268.838454A306.490016 306.490016 0 0 0 698.801834 344.613749a37.848484 37.848484 0 0 1-9.05843-9.727967A275.336893 275.336893 0 0 1 571.077968 108.306874a275.533815 275.533815 0 0 1 133.670922-236.346258L65.14495-128C36.157974-128 14.260203-102.400089 20.876796-74.752184c31.507583 129.062938 110.867309 237.094564 217.678016 306.253709 25.954372 17.919938 54.42935 37.375871 86.960929 52.223819 25.442373 11.775959 29.538359 46.07984 7.640589 63.015167A306.017402 306.017402 0 0 0 213.073054 589.900284zM807.384843 305.22927a196.922395 196.922395 0 1 0 0-393.844791 196.922395 196.922395 0 0 0 0 393.844791z m-78.453883-117.20821h-21.740232v-87.276006h77.508655c-2.520607-7.56182-4.726137-15.12364-7.246744-22.055308h-89.481537v-119.728816h21.740233v99.248887h59.864408a302.157723 302.157723 0 0 0-23.315612-45.37092c-1.575379-1.890455-4.726137-3.150758-9.767351-3.78091l5.356289-20.479929c52.617664 5.986441 91.056916 11.34273 115.317755 15.753792 2.520607-5.356289 5.356289-11.027654 8.191972-17.329171l18.274398 9.137199c-11.027654 22.055308-23.000536 42.850313-35.603569 62.069939h57.658877v-68.686532c0-6.616592-4.095986-10.082427-11.972881-10.082426l-24.890991 0.945227 5.671365-21.425156h26.46637c17.644247 0 26.46637 8.822123 26.46637 25.836218v93.892598h-128.235864c2.520607 6.931668 5.041213 14.178412 7.56182 22.055308h101.139342v87.276006H886.153801v-68.371456h-157.222841v68.371456z m112.166997-129.811243l-11.657806-5.671365c5.986441-9.452275 11.972882-19.534702 18.274398-30.562356-25.206067-4.411062-51.672437-7.876896-79.39911-10.712578 7.56182 13.233185 15.438716 28.671901 23.000536 46.946299h49.781982z m7.876895 138.948442c-10.712578-10.082427-22.370384-18.90455-35.288493-27.096522a619.9117 619.9117 0 0 1-57.028725 24.26084l-9.767351-14.493489c16.068867-5.671365 32.137735-12.603033 48.206602-20.164853-15.753792-8.191972-33.082962-14.808564-52.617664-20.479929l10.082427-16.383943c25.206067 8.822123 45.685996 17.959322 62.069939 27.096521 15.438716-7.876896 30.877432-17.014095 46.316147-27.096521l10.397503 15.753791c-12.603033 7.876896-25.521142 15.438716-39.069404 22.370384 10.712578 7.56182 21.740232 16.383943 32.767887 26.46637l-16.068868 9.767351z m-37.178948 52.617664l-23.315611-3.78091c3.78091-6.931668 7.56182-14.178412 11.027654-22.370384h-127.290636v-21.110081h270.335064v21.110081h-120.358968a188.336579 188.336579 0 0 1-10.397503 26.151294z"  horiz-adv-x="1024" />

    
    <glyph glyph-name="user-rz" unicode="&#59719;" d="M213.112438 589.979053c0 180.223376 154.623465 324.134263 337.721908 304.166332 142.374892-15.359947 252.257588-125.990948 268.01138-268.838454A306.490016 306.490016 0 0 0 698.801834 344.613749a37.848484 37.848484 0 0 1-9.05843-9.727967A275.336893 275.336893 0 0 1 571.077968 108.306874a275.533815 275.533815 0 0 1 133.670922-236.346258L65.14495-128C36.157974-128 14.260203-102.400089 20.876796-74.752184c31.507583 129.062938 110.867309 237.094564 217.678016 306.253709 25.954372 17.919938 54.42935 37.375871 86.960929 52.223819 25.442373 11.775959 29.538359 46.07984 7.640589 63.015167A306.017402 306.017402 0 0 0 213.073054 589.900284zM807.384843 305.22927a196.922395 196.922395 0 1 0 0-393.844791 196.922395 196.922395 0 0 0 0 393.844791z m-37.572793-78.768959l-15.517485-9.924888c16.541481-12.051651 30.719894-28.790054 42.614006-50.805978-16.541481-69.592374-52.381357-122.958344-107.677166-159.625294l11.106424-15.950714c54.232428 35.603569 89.875381 86.882161 106.92886 153.599468 1.299688-3.150758 2.559991-6.77413 4.13537-10.988269 26.584523-69.080376 60.652098-116.696211 102.517799-142.335507l11.618422 15.163024c-40.80232 25.914987-73.097593 70.104373-97.358432 132.68631-16.029483 42.377699-35.367262 71.955443-58.367798 88.181848z"  horiz-adv-x="1024" />

    
    <glyph glyph-name="elephant-q-on" unicode="&#59716;" d="M815.486544 742.398446c2.358853-0.329142 4.662849-0.67657 6.893702-1.06057 39.204501-4.937134 77.842147-12.799977 115.693507-23.954243 104.466099-30.866231 190.445374-88.173557 252.561835-177.846539 34.194225-49.37134 58.587324-103.314101 73.691297-161.243141 17.846825-68.388449 21.119962-133.741475 6.345132-202.95278-9.52684-44.653635-27.739379-86.271846-56.374757-122.404353-15.03083-18.980538-31.268516-37.668504-49.865054-53.119905-48.127914-40.045643-105.234098-55.113044-167.167701-48.2742-48.036486 5.284562-90.696981 24.429671-119.003216 64.987313-36.150793 51.803336-38.527931 107.117523-9.65484 162.925423 12.013693 23.222816 32.457085 39.753072 58.495895 43.99535 31.9268 5.229705 63.085602 0.237714 89.234127-21.394248l2.870852-2.468567c24.2651-19.785108 24.502813-30.683374 1.535997-52.754191-4.095993-3.949707-7.277701-2.011425-11.739408-0.877713l-0.658284 0.182857c-60.159893 15.231973-89.965554-70.582731-32.402228-93.604404 4.937134-1.956568 10.111982-3.34628 15.451401-4.059422 19.967964-2.633138 39.42393-3.711993 59.318751 0.585142 30.207946 6.527988 54.143903 23.058245 72.301585 46.482203 42.953066 55.332473 45.805632 114.322082 30.500517 179.382537-8.630842 36.62622-25.910811 69.028448-54.07076 94.756402-39.826215 36.388506-86.802131 46.53706-138.184896 31.030802-28.452521-8.59427-49.810197-28.361092-67.657022-51.949622-36.388506-48.1462-38.655931-76.489006-60.964463-140.83632-23.515387-67.839879-20.297107-44.79992-36.845648-103.460386-16.548542-58.642181-26.788524-124.342635-46.573631-182.125389-1.316569-3.839993-3.401137-7.497129-4.260564-11.410266-3.620565-16.383971-13.860547-24.868527-30.31766-28.891377-55.881043-13.641118-111.176944-14.134832-166.417989 3.181709-11.94055 3.748565-16.63997 10.33141-17.755397 22.619388-3.035423 33.225084-6.30856 66.505024-11.739407 99.400965a266.404096 266.404096 0 0 1-16.585114 57.362184c-13.878832 33.810225-45.494776 48.054771-77.567861 37.028505-23.533672-8.100557-32.694799-27.629665-37.650219-49.133627-8.72227-37.851361-6.911988-76.251292-3.035423-114.559795 1.133712-11.154266 2.889138-22.308532 3.34628-33.499369 0.128-3.09028-2.54171-7.625129-5.302848-9.289126-18.37711-11.154266-39.094787-16.274257-60.159892-18.285682-31.561086-2.998852-63.030745-1.645711-94.372403 4.644563-13.787404 2.742852-22.034246 9.764554-29.439948 20.717678-28.671949 42.51421-52.571335 88.740413-75.66615 134.290046-28.83652 56.886756-33.499369 57.947325-53.924475 123.428351-17.993111 57.746183-16.0914 72.557585-8.1737 125.330062-2.084568 1.243426-5.247991 1.279998-9.471983 0.182856-29.897089-7.9177-38.089075-25.49024-26.331382-54.783902 0.859427-2.102853 3.09028-4.041136 3.071995-6.05256a36.406792 36.406792 0 0 0-1.023998-7.332559 4.498278 4.498278 0 0 0-5.101706-3.474279c-3.108566 0.475428-6.18056 0.969141-7.003416 2.559995-5.63199 11.044552-12.946263 22.491388-14.061689 34.285653-2.998852 31.9268 18.596538 56.978184 44.909634 68.315307 10.770266 4.626277 19.382823 9.764554 24.886813 18.486824 9.599983 36.132507 25.179384 69.961018 46.079918 101.778104 17.737111 26.989666 37.247933 52.863906 61.403319 74.459296a778.037468 778.037468 0 0 0 67.108451 54.418188c13.311976 9.636554 27.062809 18.651395 40.959927 27.48338 0.767999 0.621713 4.02285 3.145137 9.855983 7.131415-4.242278-17.371398-7.423987-35.547365-7.917701-56.009042-1.097141-44.580492 20.845677-85.759847 35.785079-128.658056 19.583965-56.246757 47.049059-57.508469 105.14267-57.983897 62.610174-0.511999 120.923213 17.371398 176.731113 43.007923 63.341601 29.092519 122.514067 65.279883 173.421404 114.120939 8.374842 8.0457 9.435412 13.439976 6.674274 23.807958-22.198818 83.144994-13.366833 122.294639 28.379378 197.595076 0.731427 1.316569 1.316569 2.578281 1.791997 3.785136zM470.728302 895.870172c7.003416 0.365714 14.061689-0.146285 21.083391-0.256C548.570449 894.242746 603.829779 884.843906 654.353117 857.433669c39.186216-21.247962 76.836434-45.275348 108.452378-77.695861 8.411414-8.59427 17.554254-16.457113 26.038811-24.978241 5.449133-5.485704 6.345132-10.879981 2.011425-18.834253-38.290217-69.942732-46.335917-106.276382-25.782811-183.405386 2.559995-9.636554 1.590854-14.646831-6.089132-22.125675-46.738202-45.403347-101.119819-79.085573-159.323145-106.184953-51.291337-23.8811-104.904956-40.594213-162.486567-40.210214-53.449047 0.365714-78.701574 1.48114-96.822684 53.65019a665.964525 665.964525 0 0 1-8.228557 22.125674l9.599983 13.165691-4.02285-2.815995-7.5337-5.302847c-11.647979 29.915375-23.33253 59.519894-22.966817 90.934694l22.78396 23.862815-4.351992-2.267425-17.883397-9.289126c0.365714 5.010277 0.914284 9.892554 1.590854 14.665117l42.331353 23.131387-4.845705-0.841141-34.651367-5.997704c6.655988 32.255942 18.157682 60.745034 23.222816 95.890115l36.918791 13.97026-4.169136-0.292571-31.359944-2.28571c0.054857 0.658285 0.146285 1.316569 0.182857 1.974854 3.401137 37.942789-4.041136 86.162132 15.524544 119.6615C379.043895 873.378783 420.113536 893.328462 470.728302 895.870172zM928.912627 657.808882c-19.419394 0.182857-32.566799-13.878832-32.566799-34.797652-0.018286-22.363389 14.079975-37.375933 34.889081-37.17479 21.375962 0.219428 36.022793 16.146257 35.69365 38.838787-0.274285 19.748536-15.396544 32.914227-38.034218 33.133655z"  horiz-adv-x="1280" />

    
    <glyph glyph-name="elephant-q" unicode="&#59715;" d="M834.56 630.241882c18.672941 0.180706 31.442824 14.275765 31.201882 34.334118-0.240941 17.528471-13.492706 29.214118-33.249882 29.394824-16.986353 0.180706-28.491294-12.288-28.491294-30.840471 0-19.757176 12.288-33.069176 30.539294-32.888471M71.439059 409.057882a305.935059 305.935059 0 0 0 44.15247 106.917647c15.540706 23.913412 32.587294 46.802824 53.729883 65.957647a729.690353 729.690353 0 0 0 99.568941 76.378353s66.258824 53.609412 197.029647 86.979765a299.188706 299.188706 0 0 1-9.818353-82.522353c1.987765-114.688 65.295059-206.607059 141.492706-205.281882 27.587765 0.481882 53.127529 13.131294 74.330353 34.575059a99.809882 99.809882 0 0 0-55.235765-18.492236c-76.197647-1.325176-139.565176 90.533647-141.552941 205.221647-0.421647 24.696471 2.048 48.368941 6.927059 70.475295l0.542117 0.060235c18.672941 83.004235 72.282353 142.938353 135.529412 142.938353 58.789647 0 109.206588-51.802353 131.072-125.650824 30.900706-4.397176 61.44-10.902588 91.316706-19.877647 91.316706-27.346824 166.490353-78.064941 220.822588-157.515294a449.957647 449.957647 0 0 0 64.451765-142.757647c15.540706-60.656941 18.432-121.856 5.481412-183.115294a261.421176 261.421176 0 0 0-49.272471-108.42353c-13.131294-16.865882-27.346824-33.370353-43.610353-47.043764-42.044235-35.538824-91.979294-48.790588-146.130823-42.767059-41.984 4.638118-79.269647 21.624471-104.026353 57.524706-31.623529 45.899294-33.731765 94.930824-8.432941 144.323765 10.480941 20.600471 28.310588 35.237647 51.139764 38.972235 27.888941 4.638118 55.115294 0.240941 78.004706-18.974118l2.529883-2.16847c21.202824-17.468235 21.383529-27.166118 1.325176-46.742589-3.614118-3.493647-6.384941-1.746824-10.24-0.722823-11.083294 2.770824-22.467765 6.324706-33.671529 6.26447-17.648941 0-32.165647-16.745412-32.527059-34.394353-0.662588-28.431059 22.407529-54.452706 50.778353-58.247529 17.468235-2.349176 34.454588-3.252706 51.802353 0.542118a107.218824 107.218824 0 0 1 63.247059 41.140706c37.586824 49.031529 40.056471 104.568471 26.684235 162.213647-7.529412 32.466824-22.648471 61.138824-47.284706 83.907764-34.816 32.225882-75.896471 41.261176-120.771765 27.52753-24.877176-7.649882-43.550118-25.118118-59.151059-46.019765-27.888941-37.345882-41.080471-80.896-53.308235-124.747294-16.986353-60.837647-25.539765-123.301647-36.020706-185.464471-8.975059-53.127529-19.636706-105.953882-36.924235-157.153882-1.204706-3.373176-3.011765-6.625882-3.734588-10.059294-3.132235-14.516706-12.107294-22.046118-26.50353-25.6-48.790588-12.047059-97.219765-12.528941-145.52847 2.831059-10.420706 3.312941-14.516706 9.155765-15.480471 19.998117a1237.654588 1237.654588 0 0 1-10.24 88.064 238.290824 238.290824 0 0 1-14.516706 50.838589c-12.167529 29.876706-39.755294 42.526118-67.824941 32.768-20.600471-7.228235-28.551529-24.455529-32.888471-43.550118-7.649882-33.490824-6.023529-67.463529-2.710588-101.436235 1.024-9.878588 2.529882-19.757176 2.95153-29.696a11.083294 11.083294 0 0 0-4.638118-8.192c-16.082824-9.878588-34.153412-14.456471-52.585412-16.203294a278.287059 278.287059 0 0 0-82.522353 4.096c-12.047059 2.409412-19.275294 8.673882-25.72047 18.371764a616.146824 616.146824 0 0 0-62.042353 119.68753c-20.901647 54.091294-40.658824 108.724706-53.067294 165.526588-9.758118 44.694588-15.299765 89.630118-13.251765 135.047529a157.936941 157.936941 0 0 1-23.552-123.361882c5.782588-26.383059 17.709176-49.694118 33.972706-68.788706a158.238118 158.238118 0 0 0-56.681412 90.654118 157.214118 157.214118 0 0 0 52.585412 155.166117"  horiz-adv-x="1144" />

    
    <glyph glyph-name="pack-an" unicode="&#59714;" d="M972.8 430.6944a46.08 46.08 0 0 0 30.4128-80.6912l-448.3072-393.984a46.1824 46.1824 0 0 0-60.8768 0L45.7728 350.0032A46.08 46.08 0 0 0 106.496 419.328l417.9456-367.2576 417.8944 367.2576a45.9776 45.9776 0 0 0 30.3616 11.4176zM76.1856 848.128a45.8752 45.8752 0 0 0 30.3616-11.4688l417.8944-367.2576 417.9456 367.2576a46.08 46.08 0 1 0 60.8256-69.2224l-448.3072-394.0352a46.1312 46.1312 0 0 0-60.8768 0L45.7728 767.488A46.08 46.08 0 0 0 76.1856 848.128z"  horiz-adv-x="1024" />

    
    <glyph glyph-name="pack-up" unicode="&#59713;" d="M76.1856 361.984a46.08 46.08 0 0 0-30.4128 80.7424L494.08 836.7104a46.1824 46.1824 0 0 0 60.8256 0l448.3072-393.984a46.08 46.08 0 0 0-60.8256-69.2736l-417.8944 367.2576-417.8944-367.2576a45.9776 45.9776 0 0 0-30.4128-11.4176zM972.8-55.3984a45.8752 45.8752 0 0 0-30.4128 11.52l-417.8944 367.2064-417.8944-367.2064a46.08 46.08 0 1 0-60.8256 69.1712L494.08 419.328a46.1312 46.1312 0 0 0 60.8256 0l448.3072-394.0352A46.08 46.08 0 0 0 972.8-55.3984z"  horiz-adv-x="1024" />

    
    <glyph glyph-name="default-up" unicode="&#59712;" d="M53.9648 221.0816a44.1856 44.1856 0 0 0-44.2368 44.1856V842.8544a44.1856 44.1856 0 0 0 44.2368 44.1856h608.768a44.1856 44.1856 0 0 0 0-88.3712H98.2016V265.216a44.1856 44.1856 0 0 0-44.1856-44.1856zM105.984 199.4752l-25.1904-191.232a29.7984 29.7984 0 0 1 33.4336-33.4848l191.2832 25.1904a29.7984 29.7984 0 0 1 17.152 50.688l-54.1696 54.1184 191.1296 191.1296a40.8064 40.8064 0 0 1-57.7024 57.7024l-191.1296-191.0784-54.1696 54.1696a29.7984 29.7984 0 0 1-50.6368-17.2032zM911.36 589.312l25.1904 191.2832a29.7984 29.7984 0 0 1-33.4336 33.4336l-191.2832-25.1904a29.7984 29.7984 0 0 1-17.152-50.688l54.1696-54.1184-191.1296-191.1296A40.8064 40.8064 0 1 1 615.424 435.2l191.1296 191.1296 54.1696-54.1696a29.7984 29.7984 0 0 1 50.6368 17.152zM967.168-118.1696H358.4a44.1856 44.1856 0 1 0 0 88.32h564.5824V503.6032a44.1856 44.1856 0 1 0 88.32 0v-577.6384a44.1856 44.1856 0 0 0-44.1344-44.1344z"  horiz-adv-x="1024" />

    
    <glyph glyph-name="default-an" unicode="&#59711;" d="M53.9648 221.0816a44.1856 44.1856 0 0 0-44.2368 44.1856V842.8544a44.1856 44.1856 0 0 0 44.2368 44.1856h608.768a44.1856 44.1856 0 0 0 0-88.3712H98.2016V265.216a44.1856 44.1856 0 0 0-44.1856-44.1856zM442.88 137.3696l25.2416 191.232a29.7984 29.7984 0 0 1-33.4848 33.4848l-191.232-25.1904a29.7984 29.7984 0 0 1-17.2032-50.688l54.1696-54.1184L89.2416 40.96a40.8064 40.8064 0 0 1 57.7536-57.7024l191.0784 191.0784 54.1696-54.1184a29.7984 29.7984 0 0 1 50.688 17.152zM574.464 651.4176l-25.2416-191.232a29.7984 29.7984 0 0 1 33.4848-33.4336l191.232 25.1904a29.7984 29.7984 0 0 1 17.2032 50.6368l-54.1696 54.1696 191.1296 191.0784a40.8064 40.8064 0 0 1-57.7536 57.7536L679.2704 614.4 625.1008 668.672a29.7984 29.7984 0 0 1-50.688-17.2032zM967.168-118.1696H358.4a44.1856 44.1856 0 1 0 0 88.32h564.5824V503.6032a44.1856 44.1856 0 1 0 88.32 0v-577.6384a44.1856 44.1856 0 0 0-44.1344-44.1344z"  horiz-adv-x="1024" />

    
    <glyph glyph-name="batch-editor" unicode="&#59706;" d="M41.018857 124.892121c4.15941 20.989022 20.029158 25.852332 35.195007 10.622493l165.736486-165.672495c15.037867-15.29383 10.238547-31.099588-10.750475-35.322989l-199.523693-39.802353c-20.989022-4.223401-34.875052 9.598638-30.715642 30.58766zM992.11592-0.018157a31.995461 31.995461 0 0 0 0-63.990922h-575.918292a31.995461 31.995461 0 0 0 0 63.990922h575.918292zM652.196146 741.124693l159.977303-168.10415a40.95419 40.95419 0 0 0 0-55.992056L331.985576 12.780027a36.730789 36.730789 0 0 0-53.304437 0L118.639844 180.756195a41.274144 41.274144 0 0 0-0.127981 56.056047l480.315855 504.312451c14.653921 15.357821 38.650516 15.357821 53.368428 0zM992.11592 191.954606a31.995461 31.995461 0 0 0 0-63.990921h-383.945528a31.995461 31.995461 0 0 0 0 63.990921h383.945528z m0 191.972764a31.995461 31.995461 0 0 0 0-63.990921h-191.972764a31.995461 31.995461 0 0 0 0 63.990921h191.972764zM796.815628 884.912293l158.633494-158.697485a37.690653 37.690653 0 0 0 0-52.79251l-53.048474-52.920492a37.49868 37.49868 0 0 0-52.856501 0l-158.569503 158.569503a37.49868 37.49868 0 0 0 0 52.856501L743.831145 884.976284a37.49868 37.49868 0 0 0 52.984483 0z"  horiz-adv-x="1024" />

    
    <glyph glyph-name="button-on_huaban1" unicode="&#59705;" d="M849.365333 574.165333a164.522667 164.522667 0 0 0 7.296-328.917333l-7.296-0.128H223.018667a164.48 164.48 0 0 0-127.786667 268.330667l5.546667 6.4q2.773333 3.114667 5.76 6.101333A164.352 164.352 0 0 0 214.016 573.866667l9.002667 0.256zM72.96 557.866667c2.005333-1.664 4.138667-3.285333 6.101333-4.778667 3.968-2.773333 10.368-10.026667 14.336-12.8A165.546667 165.546667 0 0 1 36.437333 409.6a184.277333 184.277333 0 0 1 56.448-132.949333c-4.437333-5.930667-13.013333-11.989333-17.28-18.090667l-4.949333 4.778667a206.506667 206.506667 0 0 0 0 292.181333 30.378667 30.378667 0 0 0 2.304 2.304z m299.605333 0c-5.418667-5.12-14.293333-12.501333-19.882666-17.28a177.152 177.152 0 0 0 56.576-130.986667 174.634667 174.634667 0 0 0-53.76-129.28l2.773333-3.626667a168.192 168.192 0 0 0 12.373333-13.952l1.450667-2.005333 2.773333 2.816A206.762667 206.762667 0 0 1 381.44 548.693333l-6.698667 7.04z m-150.058666-13.994667a131.541333 131.541333 0 0 1-134.229334-134.229333 131.541333 131.541333 0 0 1 134.229334-134.272 131.413333 131.413333 0 0 1 134.272 134.272 131.541333 131.541333 0 0 1-134.272 134.229333z m53.802666-136.704a38.997333 38.997333 0 1 0-39.466666-38.997333 39.168 39.168 0 0 0 39.466666 38.997333z m-104.448 78.506667c2.986667 0 6.101333-1.024 6.101334-5.12 0-3.413333-2.986667-4.48-5.034667-4.693334l-1.066667-0.085333h-10.026666a9.301333 9.301333 0 0 1-9.642667-7.466667l-0.256-2.432v-112.512a11.093333 11.093333 0 0 1 10.24-9.685333l2.261333-0.170667h77.994667a40.746667 40.746667 0 0 1 6.4-6.912l3.626667-2.645333H162.986667a19.029333 19.029333 0 0 0-20.736 17.365333l-0.170667 3.2v111.36a17.664 17.664 0 0 0 16.170667 19.541334l3.584 0.213333z m104.448-83.456a34.048 34.048 0 1 1 34.56-34.048 34.346667 34.346667 0 0 1-34.56 34.048z m4.778667-32.085334a15.104 15.104 0 0 0 16.682667-12.970666v-5.973334h-0.426667c0.213333-0.981333-0.298667-1.706667-1.109333-1.706666h-37.845334c-0.64 0-1.152 0.725333-1.152 1.706666s0.512 1.706667 1.152 1.706667h5.973334v4.266667a15.104 15.104 0 0 0 16.725333 12.970666z m-0.213333-2.474666a12.202667 12.202667 0 0 1-13.354667-10.368v-3.413334h26.666667v3.413334a12.202667 12.202667 0 0 1-13.312 10.368z m15.36 22.058666a1.066667 1.066667 0 0 0 0.896-0.64h0.256v-1.024l-0.042667-0.213333v-4.693333c0.256-7.253333-7.168-13.013333-16.469333-13.013334a15.104 15.104 0 0 0-16.725334 13.013334v3.2h-5.76c-0.64 0-1.152 0.725333-1.152 1.706666s0.512 1.706667 1.152 1.706667z m-2.048-3.370666H267.52v-3.2a13.738667 13.738667 0 0 1 26.666667 0z m-53.248 3.712a46.293333 46.293333 0 0 1-3.413334-6.528l-1.365333-3.498667h-56.746667a5.12 5.12 0 0 0-5.12 4.906667 5.248 5.248 0 0 0 3.541334 4.778666l1.578666 0.341334z m30.293333 95.232a18.176 18.176 0 0 0 19.541333-16.469334l0.170667-3.242666v-59.093334a40.789333 40.789333 0 0 1-6.442667 1.749334l-3.413333 0.554666v56.96a9.216 9.216 0 0 1-7.466667 9.6l-2.389333 0.256h-9.898667c-4.266667 0-5.888 2.133333-5.888 4.778667a4.864 4.864 0 0 0 3.84 4.693333l2.048 0.213334z m-17.450667-66.133334a5.12 5.12 0 0 0 5.248-4.906666 4.906667 4.906667 0 0 0-3.456-4.693334l-1.621333-0.256H179.413333a4.906667 4.906667 0 0 0-1.578666 9.6l1.578666 0.256z m0.170667 27.008a4.906667 4.906667 0 0 0 1.621333-9.642666l-1.621333-0.256H179.413333a5.12 5.12 0 0 0-5.12 4.949333 4.949333 4.949333 0 0 0 3.541334 4.736l1.578666 0.213333z m-20.053333 44.074667a8.234667 8.234667 0 0 0 7.552-8.533333 8.533333 8.533333 0 0 0-5.418667-8.277334l-2.005333-0.298666h-34.56a8.106667 8.106667 0 0 0-7.552 8.533333 8.490667 8.490667 0 0 0 5.546666 8.277333l2.048 0.298667zM286.464 357.674667c1.877333-3.114667 5.888-4.48 12.373333-3.882667v-4.266667h-31.232v4.266667a45.482667 45.482667 0 0 1 13.226667 1.706667c2.133333 1.194667 2.645333 7.04 5.632 2.133333z m14.762667 25.472v-1.194667c0-6.4-7.253333-11.648-16.128-11.648s-16.128 5.248-16.128 11.648v1.194667z"  horiz-adv-x="1024" />

    
    <glyph glyph-name="tie" unicode="&#59702;" d="M512 896c282.794667 0 512-229.319111 512-512s-229.319111-512-512-512S0 101.319111 0 384 229.205333 896 512 896z m48.64-357.205333h-119.381333l-131.697778-391.68 192.853333-156.046223 188.188445 151.637334-129.991111 396.088889z m82.346667-71.452445l86.101333-238.136889h56.775111v53.76l-142.876444 184.376889z m-23.836445 285.781334H428.657778v-5.632l36.579555-161.080889h112.839111l41.073778 166.684444z"  horiz-adv-x="1024" />

    
    <glyph glyph-name="menu-on" unicode="&#59703;" d="M836.566504 896H160.55141C103.615561 896 55.947636 846.913208 55.947636 788.528302v-809.056604c0-58.354717 47.698113-107.471698 104.603774-107.471698h678.158491c56.90566 0 104.603774 49.116981 104.603773 107.471698V788.528302C940.44575 846.943396 892.777825 896 836.566504 896zM330.60424 833.388679h335.879245v-345.116981l-167.939622 172.196227L330.664617 488.271698V833.388679z m451.169811-735.094339H214.619334v62.641509h567.154717v-62.641509z m0 202.807547H214.619334V363.773585h567.154717v-62.64151z"  horiz-adv-x="1024" />

    
    <glyph glyph-name="conclusion" unicode="&#59701;" d="M512 896a372.363636 372.363636 0 1 1 372.363636-372.363636 372.363636 372.363636 0 0 1-372.363636 372.363636M263.726545 167.377455V-34.909091a63.674182 63.674182 0 0 1 18.245819-44.032 61.812364 61.812364 0 0 1 68.049454-13.218909 63.953455 63.953455 0 0 1 19.921455 13.312l142.242909 142.336 142.336-142.429091A62.091636 62.091636 0 0 1 760.459636-34.909091V167.377455a433.152 433.152 0 0 0-496.453818 0m248.180364 480.34909A124.090182 124.090182 0 1 0 388.189091 523.543273c0 68.514909 55.389091 124.090182 123.904 124.183272h0.186182z"  horiz-adv-x="1024" />

    
    <glyph glyph-name="down" unicode="&#59700;" d="M511.8976-127.8976A512 512 0 1 0 512.2048 895.7952a512 512 0 0 0-0.3072-1023.6928z m0 959.8976a447.8976 447.8976 0 1 1 0-895.7952 447.8976 447.8976 0 0 1 0 895.7952z m28.16-593.1008a31.3344 31.3344 0 0 0-28.16-8.3968 31.3344 31.3344 0 0 0-28.16 8.3968L238.8992 483.9424a32.0512 32.0512 0 0 0 45.2608 45.2608L512 301.3632l227.84 227.84a32.0512 32.0512 0 0 0 45.2608-45.2608L540.0576 238.8992z"  horiz-adv-x="1024" />

    
    <glyph glyph-name="time-o-on" unicode="&#59699;" d="M512.00064 895.99872a511.102722 511.102722 0 0 0 361.983095-150.015625A508.15873 508.15873 0 0 0 1023.93536 384a511.102722 511.102722 0 0 0-149.887625-361.983095 508.350729 508.350729 0 0 0-162.751593-109.695726A508.222729 508.222729 0 0 0 512.00064-127.99872a511.102722 511.102722 0 0 0-361.983095 149.887625 508.670728 508.670728 0 0 0-109.823725 162.751593A508.222729 508.222729 0 0 0 0.00192 384a511.102722 511.102722 0 0 0 150.015625 361.983095A508.670728 508.670728 0 0 0 512.00064 895.99872z m0-222.015445a30.079925 30.079925 0 0 1-30.015925-29.951925v-247.615381l-175.103562-175.103562a30.015925 30.015925 0 0 1 42.431894-42.431894L533.120587 362.688053A30.591924 30.591924 0 0 1 542.016565 384V644.03135A30.079925 30.079925 0 0 1 512.00064 673.919275v0.064z"  horiz-adv-x="1024" />

    
    <glyph glyph-name="video1" unicode="&#59581;" d="M512 817.2c-239.3 0-433.2-194-433.2-433.2 0-239.3 194-433.2 433.2-433.2 239.3 0 433.2 194 433.2 433.2 0.1 239.2-193.9 433.2-433.2 433.2z m183.3-447.9L455.1 176c-12.3-9.9-30.5-1.1-30.5 14.6V577.3c0 15.7 18.2 24.5 30.5 14.6l240.2-193.4c9.4-7.5 9.4-21.7 0-29.2z"  horiz-adv-x="1024" />

    
    <glyph glyph-name="project" unicode="&#59698;" d="M511.488 896C794.6752 896 1024 667.2896 1024 384s-228.7104-512-512-512S0 100.7104 0 384 228.1472 896 511.488 896z m214.4256-582.8608L529.92 181.76a35.9424 35.9424 0 0 0-35.7376 0l-196.096 131.3792a16.0768 16.0768 0 1 1-17.92-26.7776l196.096-131.3792c9.9328-6.6048 22.8864-9.9328 35.7888-9.9328 12.9024 0 25.6 3.328 35.7376 9.9328l196.096 131.3792a16.0768 16.0768 0 0 1 4.352 22.3744 15.872 15.872 0 0 1-22.272 4.4032z m0 86.6816l-196.0448-131.3792a35.9424 35.9424 0 0 0-35.7376 0L297.984 399.8208a16.0768 16.0768 0 1 1-17.92-26.7776l196.096-131.3792c9.9328-6.656 22.8864-9.9328 35.7888-9.9328 12.9024 0 25.6 3.328 35.7376 9.9328l196.096 131.3792a16.0768 16.0768 0 0 1-17.92 26.7776zM475.136 613.376L293.376 499.968c-12.3392-7.68-19.456-19.3024-19.456-31.744 0-12.3904 7.1168-24.2688 19.456-32l181.504-113.664c10.1888-6.4 23.3472-9.984 37.12-9.984 13.7728 0 26.9312 3.584 37.12 9.9328l181.4528 113.7152c12.3904 7.7312 19.5584 19.3024 19.5584 31.744s-7.168 24.0128-19.5584 31.744l-181.4528 113.664c-20.0704 12.7488-53.9136 12.7488-73.984 0z"  horiz-adv-x="1024" />

    
    <glyph glyph-name="message-on" unicode="&#59579;" d="M512-98.730667c-87.210667 0-393.472-4.693333-396.330667-4.693333l-72.106666-0.256c9.472 17.152 21.162667 37.674667 30.933333 54.826667 65.365333 114.474667 71.978667 127.744 58.624 146.56C85.12 165.418667 21.333333 268.501333 21.333333 381.013333 21.333333 651.562667 241.450667 871.68 512 871.68s490.666667-220.117333 490.666667-490.666667c0-114.346667-48.981333-231.424-137.984-329.514666-90.453333-99.669333-209.109333-150.229333-352.682667-150.229334zM517.461333 762.496a27.306667 27.306667 0 1 1 0-54.613333c4.693333 0 9.344-0.128 14.037334-0.384 180.352-7.168 324.864-156.202667 324.864-338.389334h54.570666c0 216.917333-176.597333 393.386667-393.472 393.386667z m0 0M865.322667 267.008a27.306667 27.306667 0 1 1 54.613333 0 27.306667 27.306667 0 0 1-54.613333 0z m0 0M226.389333 431.402667a76.330667 76.330667 0 1 1 0.042667-152.618667 76.330667 76.330667 0 0 1-0.042667 152.618667z m-43.52-76.288c0 24.021333 19.626667 43.648 43.648 43.648s43.648-19.626667 43.648-43.648-19.626667-43.648-43.648-43.648-43.648 19.626667-43.648 43.648z m0 0M444.416 431.402667a76.330667 76.330667 0 1 1 0.042667-152.618667 76.330667 76.330667 0 0 1-0.042667 152.618667z m-43.52-76.288c0 24.021333 19.626667 43.648 43.648 43.648s43.648-19.626667 43.648-43.648-19.626667-43.648-43.648-43.648c-24.149333 0-43.648 19.626667-43.648 43.648z m0 0M662.485333 431.402667a76.330667 76.330667 0 1 1 0.042667-152.618667 76.330667 76.330667 0 0 1-0.042667 152.618667z m-43.52-76.288c0 24.021333 19.626667 43.648 43.648 43.648s43.648-19.626667 43.648-43.648-19.626667-43.648-43.648-43.648c-24.064 0-43.648 19.626667-43.648 43.648z m0 0"  horiz-adv-x="1024" />

    
    <glyph glyph-name="message1" unicode="&#59580;" d="M43.562667-125.525333a21.290667 21.290667 0 0 0-18.688 31.658666 6484.522667 6484.522667 0 0 0 31.061333 55.082667c52.437333 91.818667 65.152 116.010667 59.690667 123.648C66.005333 154.965333 0 261.888 0 380.458667c0 282.325333 229.674667 512 512 512s512-229.674667 512-512c0-119.722667-50.944-241.834667-143.530667-343.893334-94.677333-104.32-218.624-157.226667-368.469333-157.226666-73.770667 0-304.512-3.328-375.210667-4.394667l-93.141333-0.554667-0.085333 0.085334zM512 849.792c-258.773333 0-469.333333-210.56-469.333333-469.333333 0-106.410667 61.525333-205.568 107.818666-270.933334 21.76-30.72 11.178667-49.194667-57.514666-169.514666l-12.928-22.784 56.106666 0.426666c70.826667 1.024 301.952 4.394667 375.850667 4.394667 137.301333 0 250.624 48.170667 336.896 143.189333C934.272 159.402667 981.333333 271.36 981.333333 380.458667c0 258.773333-210.56 469.333333-469.333333 469.333333zM517.461333 761.941333a27.306667 27.306667 0 1 1 0-54.613333c4.693333 0 9.344-0.128 14.037334-0.384 180.352-7.168 324.864-156.202667 324.864-338.389333h54.570666c0 216.917333-176.597333 393.386667-393.472 393.386666z m0 0M865.322667 266.496a27.306667 27.306667 0 1 1 54.613333 0 27.306667 27.306667 0 0 1-54.613333 0z m0 0M226.389333 430.848a76.330667 76.330667 0 1 1 0.042667-152.618667 76.330667 76.330667 0 0 1-0.042667 152.618667z m-43.52-76.288c0 24.021333 19.626667 43.648 43.648 43.648s43.648-19.626667 43.648-43.648-19.626667-43.648-43.648-43.648-43.648 19.626667-43.648 43.648z m0 0M444.416 430.848a76.330667 76.330667 0 1 1 0.042667-152.618667 76.330667 76.330667 0 0 1-0.042667 152.618667z m-43.52-76.288c0 24.021333 19.626667 43.648 43.648 43.648s43.648-19.626667 43.648-43.648-19.626667-43.648-43.648-43.648c-24.149333 0-43.648 19.626667-43.648 43.648z m0 0M662.485333 430.848a76.330667 76.330667 0 1 1 0.042667-152.618667 76.330667 76.330667 0 0 1-0.042667 152.618667z m-43.52-76.288c0 24.021333 19.626667 43.648 43.648 43.648s43.648-19.626667 43.648-43.648-19.626667-43.648-43.648-43.648c-24.064 0-43.648 19.626667-43.648 43.648z m0 0"  horiz-adv-x="1024" />

    
    <glyph glyph-name="right" unicode="&#59568;" d="M341.597091 115.898182a3331.84 3331.84 0 0 0 127.813818 257.396363c45.684364 82.618182 94.696727 161.000727 147.293091 235.287273 52.596364 74.309818 92.788364 125.114182 120.389818 152.715637s46.801455 43.706182 57.506909 48.407272c10.589091 4.701091 33.978182 9.588364 70.283637 14.685091 36.305455 5.12 61.114182 7.703273 74.612363 7.703273 8.494545 0 12.893091-3.304727 12.893091-9.774546a18.618182 18.618182 0 0 0-4.584727-11.915636c-3.025455-3.909818-11.915636-12.404364-26.507636-25.297454-73.704727-68.608-154.786909-169.611636-243.10691-303.406546a2385.757091 2385.757091 0 0 1-221.696-421.492364c-24.087273-58.810182-40.494545-94.021818-49.50109-105.797818-8.983273-12.311273-37.282909-18.315636-84.89891-18.315636-34.210909 0-54.690909 3.490909-61.393454 10.402909-6.702545 6.912-20.200727 25.809455-40.704 56.785455a1019.764364 1019.764364 0 0 1-115.386182 146.408727c-22.016 23.109818-32.907636 40.727273-32.907636 52.503273 0 16.197818 11.892364 32.814545 36.002909 49.803636 23.901091 16.896 43.799273 25.297455 59.694545 25.297454 20.293818 0 45.288727-11.194182 74.891637-33.512727 29.602909-22.877091 62.696727-65.396364 99.304727-127.883636z"  horiz-adv-x="1024" />

    
    <glyph glyph-name="mark-after" unicode="&#59565;" d="M111.872-128H0V896h1024l-177.237333-365.653333 173.397333-397.226667H111.872z"  horiz-adv-x="1024" />

    
    <glyph glyph-name="mark-before" unicode="&#59566;" d="M849.28 244.992l-125.610667 287.786667 121.856 251.349333H111.872v-539.136h737.408zM111.872-128H0V896h1024l-177.237333-365.653333 173.397333-397.226667H111.872V-128z"  horiz-adv-x="1024" />

    
    <glyph glyph-name="grade" unicode="&#59564;" d="M499.498667 638.72a1.365333 1.365333 0 0 1-2.688 0c-3.285333-20.181333-116.48-331.605333-116.48-331.605333a1.109333 1.109333 0 0 1 1.024-1.493334h234.026666a1.109333 1.109333 0 0 1 1.024 1.493334s-113.066667 309.333333-116.906666 331.605333zM922.581333 896H101.418667C59.434667 896 25.386667 861.952 25.386667 819.968v-871.936c0-41.984 34.048-76.032 76.032-76.032h821.162666c41.984 0 76.032 34.048 76.032 76.032V819.968A76.032 76.032 0 0 1 922.581333 896z m-137.856-856.618667h-51.626666a22.826667 22.826667 0 0 0-21.333334 14.72l-60.885333 159.061334a22.826667 22.826667 0 0 1-21.290667 14.677333H367.061333a22.826667 22.826667 0 0 1-21.504-15.104l-57.088-158.293333a22.826667 22.826667 0 0 0-21.504-15.061334H215.637333a22.826667 22.826667 0 0 0-21.248 31.146667l247.893334 634.112a36.48 36.48 0 0 0 34.005333 23.210667h47.402667c15.274667 0 29.013333-9.386667 34.56-23.637334l247.765333-633.685333a22.826667 22.826667 0 0 0-21.333333-31.146667z m135.466667 489.813334c0-6.826667-5.546667-12.373333-12.416-12.373334h-52.010667a12.416 12.416 0 0 1-12.373333-12.458666v-50.346667a12.416 12.416 0 0 0-12.458667-12.416h-15.189333a12.416 12.416 0 0 0-12.373333 12.416v50.346667a12.416 12.416 0 0 1-12.501334 12.458666h-51.968a12.416 12.416 0 0 0-12.373333 12.373334v13.568a12.416 12.416 0 0 0 12.373333 12.458666h51.968c6.826667 0 12.416 5.546667 12.416 12.373334v50.346666a12.416 12.416 0 0 0 12.458667 12.416h15.189333a12.416 12.416 0 0 0 12.416-12.373333v-50.346667c0-6.869333 5.546667-12.416 12.416-12.416h52.010667a12.416 12.416 0 0 0 12.373333-12.458666v-13.525334z"  horiz-adv-x="1024" />

    
    <glyph glyph-name="answersheet" unicode="&#59563;" d="M128 832a64 64 0 0 1-64-64v-768a64 64 0 0 1 64-64h768a64 64 0 0 1 64 64V768a64 64 0 0 1-64 64H128z m0 64h768a128 128 0 0 0 128-128v-768a128 128 0 0 0-128-128H128A128 128 0 0 0 0 0V768A128 128 0 0 0 128 896zM284.416 635.456a32 32 0 1 0 0-64H170.688a32 32 0 1 0 0 64h113.728z m284.48 0a32 32 0 0 0 0-64H455.04a32 32 0 1 0 0 64h113.92z m284.416 0a32 32 0 1 0 0-64H739.584a32 32 0 1 0 0 64h113.728zM284.416 416a32 32 0 1 0 0-64H170.688a32 32 0 1 0 0 64h113.728z m284.48 0a32 32 0 0 0 0-64H455.04a32 32 0 0 0 0 64h113.92z m284.416 0a32 32 0 1 0 0-64H739.584a32 32 0 1 0 0 64h113.728zM284.416 196.544a32 32 0 0 0 0-64H170.688a32 32 0 1 0 0 64h113.728z m284.48 0a32 32 0 0 0 0-64H455.04a32 32 0 1 0 0 64h113.92z m284.416 0a32 32 0 0 0 0-64H739.584a32 32 0 1 0 0 64h113.728z"  horiz-adv-x="1024" />

    
    <glyph glyph-name="wrong" unicode="&#59557;" d="M839 822.1c-1.2 2.4-3.7 9.8-7.4 9.8s-11.1-8.6-13.5-12.3l-13.5-12.3c-7.4 6.1-35.6 23.4-43 23.4-11.1 0-104.6-113.2-118.1-129.1l-60.2-68.8-30.7-38.1-43.1 83.6-50.4 100.8c-4.9 9.8-8.6 22.1-22.1 22.1-7.3 0-9.8-3.6-13.5-9.8-3.7-4.9-3.7-4.9-11.1-8.6-8.6 0-12.3 0-19.7-6.2-6.2 4.9-11.1 11.1-19.7 11.1-3.7 0-6.2-1.2-8.6-3.6l-8.6-7.4c-4.8-6.1-15.9-17.2-15.9-25.8 0-11 9.8-31.9 13.5-41.8l90.9-250.8-14.7-17.3c-66.4-79.8-159.8-190.5-210.2-279l-29.5-50.4c-8.6-14.7-29.5-44.3-29.5-60.2 0-3.7 3.8-6.2 6.2-8.6 8.6-7.3 3.6-14.7 1.2-24.5-2.5-7.4-3.7-12.3-3.7-19.7 0-13.5 11.1-27 18.5-38.1 7.3-12.2 9.9-24.5 25.8-24.5 17.2 0 49.2 3.6 63.9 14.7l243.4 377.5 115.6-178.5c6.1-9.8 30.7-54.1 46.7-54.1 14.8 0 38.1 16.1 40.6 30.8-2.6 4.9-6.2 12.3-6.2 17.2 0 7.5 19.7 14.9 24.6 19.7v9.9c8.6 3.7 13.5 8.6 17.2 17.2l-95.9 205.3-38.2 76.3 13.6 19.7 174.6 225.9c11 14.8 28.3 38.1 41.8 50.4 4.9 5 13.5 12.3 13.5 19.7 0 8.6-19.7 22.1-24.6 34.4z"  horiz-adv-x="1024" />

    
    <glyph glyph-name="ing" unicode="&#59697;" d="M512 896a512 512 0 1 1 0-1024A512 512 0 0 1 512 896z m0-928.036571A416.036571 416.036571 0 0 0 512 800.036571V384l294.180571-294.180571A414.72 414.72 0 0 0 512-31.963429z"  horiz-adv-x="1024" />

    
    <glyph glyph-name="crown-o" unicode="&#59696;" d="M1139.712 561.038222a283.534222 283.534222 0 0 0-24.803556-92.387555c-10.808889-23.665778-24.803556-44.771556-41.927111-63.317334-17.123556-18.545778-37.603556-32.312889-61.44-40.903111a166.627556 166.627556 0 0 0-84.821333-8.078222 248.035556 248.035556 0 0 0-82.944 29.184c-26.168889 14.791111-49.265778 33.564444-69.404444 56.775111a238.478222 238.478222 0 0 0-41.927112 67.242667 186.083556 186.083556 0 0 1-177.720888 321.991111l-0.910223-0.398222-0.967111-0.341334a186.197333 186.197333 0 0 1 74.865778-360.049777c7.452444-24.064 11.036444-49.493333 10.353778-76.231112a271.815111 271.815111 0 0 0-16.270222-87.381333c-10.24-27.989333-24.974222-53.134222-44.316445-75.377778-19.171556-22.186667-42.666667-38.4-70.144-48.355555a153.770667 153.770667 0 0 0-73.216-8.135111 245.76 245.76 0 0 0-72.817778 21.048889 267.548444 267.548444 0 0 0-78.279111 54.499555 139.548444 139.548444 0 1 1-110.933333-39.310222 1269.418667 1269.418667 0 0 1 103.708444-161.166222c25.088-33.166222 51.768889-64.512 79.701334-93.866667 26.510222-27.875556 55.125333-53.816889 85.560889-77.425778 147.911111 1.365333 294.513778 28.046222 433.493333 78.791111a1281.934222 1281.934222 0 0 1 203.207111 94.321778 1343.943111 1343.943111 0 0 1 179.427556 124.017778 772.551111 772.551111 0 0 1 15.701333 114.232889c2.730667 40.391111 2.844444 81.521778 0.853333 123.164444a1444.181333 1444.181333 0 0 1-11.832889 123.448889c-3.413333 23.552-7.395556 46.648889-12.174222 69.12a139.377778 139.377778 0 0 1-150.414222 225.507556 139.548444 139.548444 0 0 1 40.277333-270.620445h0.113778z"  horiz-adv-x="1308" />

    
    <glyph glyph-name="heart-oo" unicode="&#59695;" d="M1101.743993 578.7127740000001a288.382004 288.382004 0 0 1-550.141266 146.704337 288.382004 288.382004 0 0 1-550.141266-146.704337s3.72346-360.430961 551.816823-646.113457c548.000276 285.682495 548.465709 646.113456 548.465709 646.113457zM296.545694 832.37351a47.287946 47.287946 0 1 0 0.186173-94.575893 47.287946 47.287946 0 0 0-0.093087 94.575893zM148.817404 478.365517a49.33585 49.33585 0 0 0-60.78549 34.348922 317.145735 317.145735 0 0 0-11.821986 72.886736c-4.468152 116.637395 67.394632 173.978685 70.931919 176.864367a49.33585 49.33585 0 0 0 61.250923-77.541062c-2.606422-2.14099-33.697316-30.160029-33.511143-90.10774 0.093087-16.103966 2.420249-34.628181 8.191613-55.572646a49.33585 49.33585 0 0 0-34.255836-60.878577z"  horiz-adv-x="1117" />

    
    <glyph glyph-name="saoyisao" unicode="&#59556;" d="M850.0736-44.718079999999986L686.3872-44.718079999999986c-12.27264 0-20.4544 8.192-20.4544 20.45952 0 12.27776 8.18176 20.46464 20.4544 20.46464l163.69152 0c34.78528 0 61.38368 26.59328 61.38368 61.37344l0 163.69152c0 12.26752 8.18176 20.4544 20.4544 20.4544s20.46464-8.18688 20.46464-20.4544l0-163.69152C952.38144 0.2918399999999792 907.3664-44.718079999999986 850.0736-44.718079999999986L850.0736-44.718079999999986zM361.06752-44.718079999999986L195.33824-44.718079999999986c-57.2928 0-102.30272 45.00992-102.30272 102.2976l0 163.69152c0 12.26752 8.18688 20.4544 20.45952 20.4544s20.46464-8.18688 20.46464-20.4544l0-163.69152c0-34.78016 26.5984-61.37344 61.38368-61.37344l165.72928 0c12.27776 0 20.45952-8.18688 20.45952-20.46464C381.52704-36.53120000000001 371.29728-44.718079999999986 361.06752-44.718079999999986L361.06752-44.718079999999986zM113.49504 528.1792c-12.27264 0-20.45952 8.18688-20.45952 20.45952L93.03552 712.3199999999999c0 57.2928 45.01504 102.30272 102.30272 102.30272l165.72928 0c12.27776 0 20.45952-8.18688 20.45952-20.45952s-8.18176-20.46464-20.45952-20.46464L195.33824 773.69856c-34.78528 0-61.38368-26.5984-61.38368-61.38368l0-163.68128C133.95456 536.36096 125.76768 528.1792 113.49504 528.1792L113.49504 528.1792zM931.9168 528.1792c-12.27264 0-20.4544 8.18688-20.4544 20.45952L911.4624 712.3199999999999c0 34.78528-26.5984 61.38368-61.38368 61.38368l-161.6384 0c-12.27264 0-20.45952 8.18688-20.45952 20.46464s8.18688 20.45952 20.45952 20.45952l161.6384 0c57.28768 0 102.30272-45.01504 102.30272-102.30272l0-163.68128C952.38144 536.36096 944.18944 528.1792 931.9168 528.1792L931.9168 528.1792zM31.65184 384.95232c0 12.27264 8.18688 20.45952 20.45952 20.45952l941.18912 0c12.27264 0 20.45952-8.18688 20.45952-20.45952 0-12.27264-8.18688-20.46464-20.45952-20.46464L52.11136 364.48767999999995C39.8336 364.48767999999995 31.65184 372.67967999999996 31.65184 384.95232L31.65184 384.95232z"  horiz-adv-x="1024" />

    
    <glyph glyph-name="ios" unicode="&#59554;" d="M812.2 345.20000000000005c-7.2 96.1 56.4 156.8 116.4 199-56.4 50.6-105.4 99.5-209.1 104.5-83.6 3.4-121.8-43.8-200-45.5-72.7-1.7-67.3 52.3-218.2 37.1C170.5 626.8 55.9 505.4 65 335.1c9.1-183.8 147.3-438.3 276.3-438.3 90.9 1.7 112.7 42.1 187.3 42.1 92.7 0 114.5-50.6 187.3-40.5C841.4-84.70000000000005 959.5 99 959.5 158c-69.1 33.8-138.2 91.1-147.3 187.2z m-105.4 526C534.1 849.3 485 702.6 494.1 635.2c132.7-6.7 232.7 123.1 212.7 236z"  horiz-adv-x="1024" />

    
    <glyph glyph-name="Windows" unicode="&#59555;" d="M456 412V735.9l-335.9-72V412H456zM512 412h391.8V831.8l-391.8-84V412zM456 356H120.2v-251.9l335.9-72V356zM512 356v-335.9l391.8-84V356H512z"  horiz-adv-x="1024" />

    
    <glyph glyph-name="icon_msg" unicode="&#59552;" d="M715.648 485.8304C715.648 519.5584 688.288 546.9184 654.56 546.9184 620.832 546.9184 593.472 519.5584 593.472 485.8304 593.472 452.1024 620.832 424.7424 654.56 424.7424 688.288 424.7424 715.648 452.1024 715.648 485.8304M693.984 302.56640000000004L330.048 302.56640000000004C315.136 302.56640000000004 304.64 288.42240000000004 309.632 275.1104 339.2 196.16639999999995 418.624 139.6544 512 139.6544 605.408 139.6544 684.832 196.16639999999995 714.4 275.1104 719.392 288.42240000000004 708.896 302.56640000000004 693.984 302.56640000000004M308.384 485.8304C308.384 452.1024 335.744 424.7424 369.472 424.7424 403.2 424.7424 430.56 452.1024 430.56 485.8304 430.56 519.5584 403.2 546.9184 369.472 546.9184 335.744 546.9184 308.384 519.5584 308.384 485.8304M960 384.0064C960 136.5824 759.424-63.993600000000015 512-63.993600000000015 428.64-63.993600000000015 350.848-40.82560000000001 284.032-1.1455999999999449L99.232-53.913599999999974C83.872-58.29759999999999 69.664-44.121599999999944 74.08-28.761600000000044L126.848 156.00639999999999C87.2 222.85440000000006 64 300.64639999999997 64 384.0064 64 631.4304 264.608 832.0064 512 832.0064 759.424 832.0064 960 631.4304 960 384.0064"  horiz-adv-x="1024" />

    
    <glyph glyph-name="air-bubbles" unicode="&#59694;" d="M511.658667 878.006857C239.567238 878.006857 18.870857 657.359238 18.870857 385.219048c0-73.142857 15.945143-142.677333 44.568381-205.141334 24.624762-53.686857-24.33219-267.654095-24.33219-267.654095s136.825905 31.695238 218.794666 31.695238c20.333714 0 37.302857-1.950476 47.981715-6.826667 62.561524-28.818286 132.291048-44.860952 205.775238-44.860952 272.14019 0 492.836571 220.647619 492.836571 492.78781C1004.495238 657.310476 783.945143 877.958095 511.658667 877.958095zM373.418667 402.529524c-3.120762-17.798095-20.675048-27.794286-51.395048-22.918095-58.709333 9.606095-84.894476 2.681905-100.205714 8.923428-15.311238 6.339048-20.577524 31.158857 6.290285 40.472381 26.819048 9.264762 57.295238-2.486857 62.220191 3.559619 2.974476 3.608381-8.240762 14.384762-28.91581 19.260953-25.307429 5.90019-53.345524 8.43581-48.371809 25.258666 8.240762 27.843048 47.299048 28.818286 74.361905 23.015619 37.254095-7.94819 93.135238-55.881143 86.016-97.572571z m138.386285-201.630476a96.743619 96.743619 0 0 0-96.694857 96.548571h0.097524c0 0.341333-0.24381 0.682667-0.243809 0.975238a19.407238 19.407238 0 0 0 38.716952 0c0-0.292571-0.195048-0.633905-0.195048-0.975238h0.195048a57.977905 57.977905 0 0 1 116.053333 0h0.24381c0 0.341333-0.24381 0.682667-0.24381 0.975238a19.309714 19.309714 0 0 0 19.358476 18.968381c10.581333 0 19.163429-8.387048 19.358477-18.919619 0-0.341333-0.195048-0.682667-0.195048-0.975238h0.195048v0.633905c0-0.195048 0.146286-0.341333 0.146285-0.536381a96.938667 96.938667 0 0 0-96.792381-96.694857z m222.354286 157.500952a77.385143 77.385143 0 1 0 0.097524 154.770286 77.385143 77.385143 0 0 0-0.048762-154.770286z"  horiz-adv-x="1024" />

    
    <glyph glyph-name="vip-v" unicode="&#59693;" d="M860.379429 896c42.788571 0 97.426286-31.158857 120.758857-66.194286l171.373714-264.923428c23.405714-35.108571 19.529143-89.6-11.702857-120.685715l-502.491429-537.6c-15.579429-15.652571-35.108571-23.405714-54.564571-23.405714-19.382857 0-38.912 7.753143-54.491429 23.405714L26.770286 440.173714c-31.232 31.085714-35.108571 85.723429-11.702857 120.758857L190.390857 829.805714C213.723429 864.914286 268.214857 896 311.076571 896H860.379429zM509.805714 662.235429H377.344l-7.826286-15.579429c11.702857-3.876571 19.529143-7.753143 27.282286-15.579429 7.826286-7.753143 11.702857-19.456 11.702857-35.108571l42.861714-412.891429h147.968l284.452572 448c3.803429 3.949714 3.803429 3.949714 3.803428 7.826286 3.949714 3.876571 3.949714 3.876571 3.949715 7.753143 0 7.826286-3.949714 11.702857-11.702857 7.826286-3.876571 3.876571-11.702857 3.876571-23.405715 3.876571H704.658286l-3.949715-15.579428c11.702857 0 19.529143-3.876571 23.405715-7.753143 3.876571-3.949714 7.753143-7.753143 7.753143-15.579429v-7.826286c0-3.876571-3.876571-3.876571-3.876572-7.826285L580.022857 327.314286l-27.282286 288.182857c0 15.579429-3.949714 27.282286-11.702857 35.108571-7.826286 7.753143-15.579429 11.702857-31.158857 11.702857z"  horiz-adv-x="1170" />

    
    <glyph glyph-name="spacecraft" unicode="&#59692;" d="M1210.181818 580.421818c-8.285091 38.725818-82.478545 60.881455-192.418909 66.466909C938.077091 796.299636 784.104727 896 605.556364 896c-247.435636 0-448.046545-191.022545-467.316364-434.641455C44.869818 417.047273-7.354182 370.036364 0.930909 331.217455a56.785455 56.785455 0 0 1 13.777455-24.855273c16.477091-13.870545 43.938909-24.948364 79.685818-30.440727h2.792727c2.699636 0 8.192 0 10.984727-2.792728h52.130909c118.225455-8.378182 285.882182 5.585455 470.109091 44.311273 222.487273 44.218182 412.206545 113.477818 508.369455 177.152 2.792727 2.792727 8.285091 5.585455 10.984727 8.378182 2.792727 2.699636 8.285091 5.492364 11.077818 8.192l8.192 8.378182c13.777455 13.777455 24.762182 24.855273 30.254546 38.725818C1210.181818 563.851636 1210.181818 572.043636 1210.181818 580.421818zM385.675636 392.192c-54.923636 0-98.955636 44.218182-98.955636 99.607273 0 55.389091 46.731636 99.607273 98.955636 99.607272 52.130909 0 98.862545-44.218182 98.862546-99.607272 0-55.389091-43.938909-99.607273-98.862546-99.607273zM685.149091 525.032727a123.624727 123.624727 0 0 0-123.717818 124.555637 123.624727 123.624727 0 1 0 247.342545 0c0-69.166545-54.923636-124.555636-123.624727-124.555637z m-500.270546-307.2c76.986182-155.089455 236.450909-263.074909 420.584728-263.074909a465.733818 465.733818 0 0 1 464.523636 440.133818c-104.541091-49.803636-255.720727-96.814545-426.077091-132.840727-178.734545-36.026182-340.805818-49.803636-458.938182-44.311273z m500.270546-97.000727a80.058182 80.058182 0 0 0-79.685818-80.244364c-46.731636-2.792727-82.478545 35.933091-82.478546 80.244364a80.058182 80.058182 0 0 0 79.685818 80.337455c46.731636 0 82.478545-36.026182 82.478546-80.337455z"  horiz-adv-x="1210" />

    
    <glyph glyph-name="arrow-o" unicode="&#59691;" d="M0 384c0 282.624 229.376 512 512 512s512-229.376 512-512-229.376-512-512-512-512 229.376-512 512z m602.8288-253.44l2.2528 2.2528 170.496 209.1008a55.6032 55.6032 0 0 1 0 80.7936L602.8288 636.3136a63.488 63.488 0 0 1-85.1968 0c-14.6432-13.4144-21.9136-27.4432-21.9136-41.472 0-16.7936 7.8848-28.0576 16.2816-39.2192l91.4432-115.5072h-299.008c-33.5872 0-61.0304-25.8048-61.0304-57.7536 0-32.0512 27.4432-57.7536 61.1328-57.7536h298.9056l-92.5696-108.8512c-22.9376-27.4432-21.2992-60.0064 3.3792-82.944 24.064-22.528 65.536-23.552 88.576-2.2528z"  horiz-adv-x="1024" />

    
    <glyph glyph-name="v" unicode="&#59690;" d="M1008.834534 312.028814c27.125743-47.598002 16.889614-85.983487-30.196581-113.621037-47.661978-28.149356-71.652906-70.117487-72.228689-124.944755-0.511806-54.763293-28.149356-82.912649-83.424455-83.424455-55.339075-1.023613-96.795399-25.078517-124.944755-72.164713-28.149356-47.598002-66.087011-57.834131-114.19682-30.708388-47.661978 27.125743-95.771786 27.125743-143.94557 0-48.109808-26.613937-85.983487-16.377807-114.132844 30.708388-28.149356 47.598002-70.181463 71.652906-124.944755 72.164713-54.827268 0.511806-82.976624 28.661162-83.488431 83.424455-1.023613 55.275099-25.078517 96.731423-72.164713 124.944755-47.150171 28.149356-57.386301 66.023035-30.708388 114.132844 27.125743 47.598002 27.125743 95.70781 0 143.817619-26.677912 48.109808-16.441783 85.983487 30.708388 114.132843 47.086196 28.149356 71.1411 69.669656 72.164713 124.944755 0.511806 54.763293 28.149356 82.912649 83.488431 83.424455 54.763293 0.511806 96.283593 24.566711 124.432949 71.652907 28.149356 47.598002 66.023035 57.834131 114.196819 30.708388 47.598002-27.125743 95.70781-26.613937 143.881595 0 48.109808 26.613937 85.983487 16.377807 114.196819-30.708388 28.149356-47.598002 70.117487-71.652906 124.944755-72.164713 54.763293-0.511806 82.912649-28.661162 83.424456-83.424455 1.023613-55.275099 25.078517-96.795399 72.228688-124.944755 47.598002-28.149356 57.834131-66.023035 30.708388-114.132844-27.125743-47.598002-27.125743-95.70781 0-143.817619z m-206.897766 247.202527v0.063975c0.575782 2.047226 1.087589 4.606258 1.599395 7.677098 0 5.118065-3.19879 9.724323-8.764686 13.306968a42.863792 42.863792 0 0 1-23.031291 5.118065H623.124381l-5.118065-16.377808a46.382462 46.382462 0 0 0 22.071655-7.16529c4.862161-3.582645 7.677097-9.276492 7.677097-15.354194a25.718275 25.718275 0 0 0-1.53542-7.165291 63.016172 63.016172 0 0 0-3.582645-8.764686l-143.945571-271.257431-25.590323 282.517174c-1.535419 15.354194-6.077702 26.10213-12.795162 32.755614-6.653484 6.653484-17.40142 10.236129-31.220195 10.236129H298.575101l-6.141677-16.377807a44.399212 44.399212 0 0 0 28.149356-14.842388c6.141678-7.677097 10.236129-19.448646 11.771549-35.314646l46.062582-406.438316h143.433764l277.015254 440.793325a19.320694 19.320694 0 0 1 3.070839 6.589509z"  horiz-adv-x="1024" />

    
    <glyph glyph-name="web-code" unicode="&#59685;" d="M303.01965019 733.9449595799999h1129.05120849c31.80836289 0 47.72578628-15.8909388 47.725787-47.75227159v-615.5620031c0-31.83484748-15.8909388-47.75227159-47.75227159-47.75227158H302.9931656c-31.80836289 0-47.72578628 15.8909388-47.72578627 47.75227158V686.19268799C255.29386392 718.02753547 271.18480272 733.9449595799999 303.01965019 733.9449595799999zM700.05475869 204.96208853999997l-164.55067246 164.0739441a13.37487326 13.37487326 0 0 0 0 18.75130759l164.55067246 164.1533993a13.29541877 13.29541877 0 0 1-9.79941263 22.777012h-60.91526524a13.29541877 13.29541877 0 0 1-9.40213875-3.84031012l-182.6663427-182.66634271a13.37487326 13.37487326 0 0 1 0-18.77779289l182.6663427-182.66634271a13.37487326 13.37487326 0 0 1 9.37565343-3.89328003h60.94175055a13.29541877 13.29541877 0 0 1 9.79941264 22.08840547z m335.2988109 0a13.29541877 13.29541877 0 0 1 9.37565342-22.08840547h60.91526598c3.54897605 0 6.88607321 1.43018439 9.40213874 3.89328003l182.6663427 182.66634272a13.37487326 13.37487326 0 0 1 0 18.77779288l-182.6663427 182.66634271a13.29541877 13.29541877 0 0 1-9.37565342 3.81382554h-60.9417513a13.29541877 13.29541877 0 0 1-9.40213873-22.75052742l164.15339929-164.15339929a13.37487326 13.37487326 0 0 0 1e-8-18.7513076l-164.1533993-164.0739441z m-242.62815193-71.16492165a13.29541877 13.29541877 0 0 1 12.44790182 8.39571282l197.60382547 461.55232041a13.77214714 13.77214714 0 0 1-12.10359857 19.43991483h-48.41439424a13.29541877 13.29541877 0 0 1-12.13008315-8.31625761l-197.57734016-461.6317749a13.77214714 13.77214714 0 0 1 12.10359856-19.43991555h48.07009027z"  horiz-adv-x="1718" />

    
    <glyph glyph-name="web-switch" unicode="&#59686;" d="M509.243077-122.466462C227.977846-122.466462 0 105.550769 0 386.776615 0 668.002462 227.997538 896 509.243077 896 790.449231 896 1018.446769 668.002462 1018.446769 386.756923c0-281.225846-227.997538-509.223385-509.243077-509.223385zM841.314462 763.155692l-63.369847-0.68923-56.123077-56.123077a132.804923 132.804923 0 0 1-187.844923 0l-93.676307-93.676308c-8.664615-8.664615-8.664615-22.685538 0-31.330462l46.710154-46.710153-46.572308-46.572308a22.094769 22.094769 0 1 1 31.271384-31.271385l46.572308 46.572308 63.172923-63.172923-46.572307-46.572308a22.094769 22.094769 0 1 1 31.271384-31.271384l46.572308 46.572307 45.725538-45.745231c8.664615-8.644923 22.705231-8.644923 31.350154 0l94.365539 94.385231a131.741538 131.741538 0 0 1 0.137846 186.190769l56.123077 56.123077 0.886154 63.291077zM534.685538 236.425846l-218.781538 218.781539a22.173538 22.173538 0 0 1-31.310769 0L213.661538 384.196923a131.820308 131.820308 0 0 1-0.137846-186.249846l-79.222154-79.163077-1.45723-64.118154 64.059077 1.516308 79.222153 79.222154 0.492308-0.492308a132.804923 132.804923 0 0 1 187.864616 0l70.144 70.163692c8.723692 8.664615 8.723692 22.685538 0.059076 31.350154z"  horiz-adv-x="1024" />

    
    <glyph glyph-name="web-wrench" unicode="&#59687;" d="M509.866667 896c281.6 0 509.866667-228.266667 509.866666-509.866667S791.466667-123.733333 509.866667-123.733333 0 104.533333 0 386.133333 228.266667 896 509.866667 896z m289.536-799.658667a112.576 112.576 0 0 1 0.064 158.997334l-157.226667 157.184c9.92 28.032 15.018667 57.536 15.082667 87.253333 0.277333 145.109333-117.12 262.933333-262.208 263.210667a260.608 260.608 0 0 1-104.106667-21.546667l-15.658667-6.826667 0.064-0.064a13.312 13.312 0 0 1-4.096-21.589333c0.128-0.064-0.042667-0.128 0-0.192l146.858667-146.837333-88.341333-88.362667-143.936 143.936c-0.234667 0-0.426667-0.042667-0.768 0.234667a15.658667 15.658667 0 0 1-25.685334-5.653334c-0.106667-0.170667-0.170667-0.128-0.298666-0.128l-4.842667-11.2a262.634667 262.634667 0 0 1-6.272-191.189333c48.362667-136.746667 198.442667-208.405333 335.189333-160.042667l157.248-157.184a111.744 111.744 0 0 1 79.466667-32.938666 111.573333 111.573333 0 0 1 79.466667 32.938666z"  horiz-adv-x="1024" />

    
    <glyph glyph-name="web-cycle" unicode="&#59688;" d="M325.305191 256.370383h373.651064l-186.825532 309.378723-186.825532-309.378723z m557.753192-224.190638c-89.567319-96.168851-223.645957-159.918298-370.92766-159.918298-147.259915 0-281.338553 63.749447-370.905872 159.918298 19.238128 0 31.874723 6.579745 51.112851 19.238127 25.273191 12.636596 45.056 38.454468 51.091064 63.72766 70.329191-70.329191 166.498043-115.385191 268.701957-115.385192 102.225702 0 198.372766 45.056 268.723745 108.805447 12.636596-25.273191 31.874723-45.077787 51.091064-63.749447 19.238128-6.601532 38.476255-12.636596 51.112851-12.636595z m122.008511 204.407829c-12.658383 12.636596-25.294979 25.273191-38.476256 31.874724-25.273191 12.636596-51.112851 19.238128-82.987574 19.238128 6.601532 31.874723 12.636596 63.72766 12.636596 96.168851 0 179.134638-121.442043 326.394553-281.338554 370.905872 12.636596 19.238128 25.273191 45.056 25.273192 76.930723 0 19.238128-6.601532 31.874723-12.636596 51.112851 230.247489-51.112851 396.745532-256.087149 396.745532-498.949446 0-51.112851-6.601532-102.225702-19.238128-147.281703z m-985.828766 0C6.601532 281.643574 0 332.756426 0 383.869277 0 627.298043 166.498043 831.705872 396.745532 882.796936c-6.601532-19.21634-12.636596-31.852936-12.636596-51.091064 0-31.874723 12.636596-57.692596 25.273192-76.908936-159.35183-44.533106-281.338553-191.793021-281.338554-370.927659 0-31.874723 6.579745-63.749447 12.636596-96.168851-25.273191 6.579745-57.714383 0-82.987574-19.238128-12.636596-6.035064-25.273191-19.238128-38.454468-31.874724z m492.892595 531.390639c-38.454468 0-63.72766 25.273191-63.727659 63.727659C448.381277 870.182128 473.654468 896 512.130723 896c38.476255 0 63.749447-25.817872 63.749447-63.749447 0-37.909787-25.273191-64.27234-63.749447-64.27234zM70.329191 127.782128c-19.21634 31.874723-6.579745 70.350979 25.273192 89.567319 31.874723 19.238128 70.350979 6.601532 89.589106-25.273192 19.21634-31.874723 6.579745-70.329191-25.839659-89.545532-31.308255-19.259915-75.819574-6.623319-89.022639 25.273192z m883.624852 0c-19.238128-31.874723-57.714383-38.454468-89.589107-25.273192-31.852936 12.636596-38.454468 57.692596-25.817872 89.567319 12.636596 31.874723 57.692596 38.476255 89.567319 25.273192 31.874723-19.21634 44.511319-57.147915 25.83966-89.545532z"  horiz-adv-x="1024" />

    
    <glyph glyph-name="web-saas" unicode="&#59689;" d="M913.35855298 805.875c189.11101987 0 343.02878311-151.83059189 343.02878229-338.23273013 0-13.56661177-0.9325654-27.57730297-2.86430878-42.20970447a247.17434189 247.17434189 0 0 0 91.65789486-192.5526308c0-138.2861846-113.9950654-250.70476987-254.21299338-250.70476986H344.31578973C204.1200654-17.824835259999986 90.125 94.59374998999999 90.125 232.85773013000005c0 121.72203974 91.05838823 226.34703973 210.95970364 246.796875 10.72450662 113.9950654 107.51151325 202.83305961 224.99259933 202.8330596A226.48026324 226.48026324 0 0 0 629.90296027 657.55263162 345.56003311 345.56003311 0 0 0 913.35855298 805.875zM430.51151325 368.76809189000005c-26.46710513 0-48.11595364-5.83963824-65.27960514-17.87417715-18.5625-12.36759851-27.5106904-29.53125001-27.51069122-51.20230297 0-21.64884851 9.28125001-38.12417798 28.19901324-49.47039488 7.19407863-4.1299346 26.11184189-10.99095364 56.33141474-20.62746688 27.15542797-8.23766473 42.96463825-13.74424338 47.78289487-16.14226988 15.0986846-7.54934189 23.02549338-17.87417798 23.02549337-30.93009851 0-10.30263162-5.50657863-18.20723675-15.80921108-24.40213824-10.32483526-5.83963824-24.75740149-8.92598675-42.63157865-8.92598676-20.25 0-35.03782864 3.77467136-44.65213825 10.65789487-10.65789487 7.90460513-17.18585513 21.31578973-19.93914487 39.85608527h-39.85608526c1.70970364-31.28536176 13.05592135-53.95559189 33.68338824-68.38815811 16.83059189-11.67927649 40.54440811-17.54111838 70.78618379-17.54111839 31.26315811 0 55.66529636 6.55016474 72.82894784 18.91776325 17.18585513 12.72286175 25.77878311 30.24177649 25.77878311 52.2236846 0 22.6924346-10.65789487 40.21134851-31.95148095 52.93421027-9.6143096 5.484375-30.93009851 13.74424338-64.25822352 24.046875-22.67023013 7.21628311-36.76973676 12.36759851-41.92105216 15.12088824-11.67927649 6.19490149-17.18585513 14.765625-17.18585595 25.09046027 0 11.67927649 4.81825662 20.27220364 15.12088824 25.42351986 8.23766473 4.46299338 19.93914487 6.52796027 35.39309272 6.52796028 17.87417798 0 31.61842135-3.10855297 40.54440728-9.96957202 8.9481904-6.52796027 15.47615149-17.51891473 18.89555961-32.63980298h39.87828973c-2.42023013 26.80016474-12.36759851 46.7393096-29.55345447 59.4399677-16.16447351 12.03453974-38.85690811 17.87417798-67.72203891 17.87417716z m211.60361837-67.69983527c-22.6924346 0-40.56661175-3.77467136-53.62253311-12.01233525-15.47615149-8.9481904-25.09046026-23.38075662-28.86513162-42.96463826l38.83470447-3.10855298a30.86348675 30.86348675 0 0 0 14.765625 20.64967136c6.52796027 4.10773013 15.12088825 5.83963824 26.11184189 5.83963825 25.44572351 0 38.14638162-11.34621689 38.14638162-34.72697434v-6.88322351l-38.83470447-1.02138163c-26.11184189-0.66611838-46.38404636-6.17269702-60.81661176-16.47532864-15.80921026-10.65789487-23.35855297-26.13404636-23.35855215-46.05098675 0-14.78782864 5.484375-26.80016474 16.49753311-36.41447351 10.65789487-9.30345364 25.09046026-14.09950662 43.63075579-14.09950662 15.45394702 0 28.86513162 2.75328973 40.18914487 7.90460513 9.99177649 4.79605297 18.5625 11.32401324 25.44572434 20.27220364v-23.38075662h36.41447351v113.41776324c0 21.64884851-5.484375 38.12417798-16.47532947 49.47039487-12.38980297 13.05592135-31.9736846 19.58388162-58.08552566 19.58388162z m35.37088825-101.36101986v-8.9481904c0-13.74424338-5.484375-25.09046026-15.80921027-34.01644785-10.30263162-8.59292798-23.02549338-13.05592135-38.14638162-13.05592054-8.59292798 0-15.45394702 2.42023013-20.96052649 6.52796028a18.31825662 18.31825662 0 0 0-7.90460513 15.47615149c0 21.31578973 15.47615149 32.28453974 46.73930877 32.97286175l36.08141474 1.04358527z m158.31414487 101.36101986c-22.64802649 0-40.54440811-3.77467136-53.60032948-12.01233525-15.45394702-8.9481904-25.09046026-23.38075662-28.86513162-42.96463826l38.85690811-3.10855298a30.86348675 30.86348675 0 0 0 14.765625 20.64967136c6.52796027 4.10773013 15.0986846 5.83963824 26.1118419 5.83963825 25.42351987 0 38.14638162-11.34621689 38.14638161-34.72697434v-6.88322351l-38.85690728-1.02138163c-26.08963824-0.66611838-46.38404636-6.17269702-60.81661257-16.47532864-15.78700662-10.65789487-23.35855297-26.13404636-23.35855216-46.05098675 0-14.78782864 5.50657863-26.80016474 16.49753312-36.41447351 10.65789487-9.30345364 25.09046026-14.09950662 43.63075661-14.09950662 15.47615149 0 28.86513162 2.75328973 40.21134851 7.90460513 9.96957202 4.79605297 18.5625 11.32401324 25.42351987 20.27220364v-23.38075662h36.41447351v113.41776324c0 21.64884851-5.484375 38.12417798-16.47532947 49.47039487-12.36759851 13.05592135-31.9736846 19.58388162-58.06332202 19.58388162z m35.41529552-101.36101986v-8.9481904c0-13.74424338-5.50657863-25.09046026-15.80921025-34.01644785-10.32483526-8.59292798-23.02549338-13.05592135-38.14638163-13.05592054-8.59292798 0-15.47615149 2.42023013-20.96052649 6.52796028a18.31825662 18.31825662 0 0 0-7.90460513 15.47615149c0 21.31578973 15.45394702 32.28453974 46.7393096 32.97286175l36.08141391 1.04358527z m167.59539487 169.06085513c-26.46710513 0-48.11595364-5.83963824-65.27960512-17.87417716-18.5625-12.36759851-27.5106904-29.53125001-27.5106904-51.20230298 0-21.64884851 9.28125001-38.12417798 28.19901242-49.47039486 7.19407863-4.1299346 26.11184189-10.99095364 56.33141473-20.62746688 27.15542797-8.23766473 42.96463825-13.74424338 47.78289486-16.14226988 15.0986846-7.54934189 23.02549338-17.87417798 23.02549338-30.93009851 0-10.30263162-5.50657863-18.20723675-15.80921026-24.40213824-10.32483526-5.83963824-24.75740149-8.92598675-42.63157947-8.92598676-20.27220364 0-35.03782864 3.77467136-44.65213824 10.65789487-10.65789487 7.90460513-17.18585513 21.31578973-19.93914405 39.85608526h-39.85608609c1.70970364-31.28536176 13.05592135-53.95559189 33.6611846-68.38815812 16.85279636-11.67927649 40.56661175-17.54111838 70.80838825-17.54111837 31.26315811 0 55.66529636 6.55016474 72.82894702 18.91776325 17.18585513 12.72286175 25.77878311 30.24177649 25.77878311 52.2236846 0 22.6924346-10.65789487 40.21134851-31.95148013 52.93421027-9.6143096 5.484375-30.93009851 13.74424338-64.25822434 24.046875-22.6924346 7.21628311-36.76973676 12.36759851-41.92105215 15.12088824-11.67927649 6.19490149-17.18585513 14.765625-17.18585514 25.09046027 0 11.67927649 4.81825662 20.27220364 15.09868378 25.42351986 8.25986838 4.46299338 19.96134851 6.52796027 35.41529636 6.52796028 17.87417798 0 31.61842135-3.10855297 40.54440811-9.96957204 8.9481904-6.52796027 15.47615149-17.51891473 18.89555877-32.63980296h39.87828974c-2.42023013 26.80016474-12.38980297 46.7393096-29.55345447 59.4399677-16.16447351 12.03453974-38.85690811 17.87417798-67.72203891 17.87417716z"  horiz-adv-x="1536" />

    
    <glyph glyph-name="web-chart" unicode="&#59684;" d="M454.537407-111.85414a453.227163 453.227163 0 0 0-321.440745 133.12A453.131907 453.131907 0 0 0 0.000476 342.754233 453.227163 453.227163 0 0 0 133.120476 664.218791a452.679442 452.679442 0 0 0 321.416931 133.12h30.791441v-425.126698h423.936v-29.743628a451.750698 451.750698 0 0 0-35.792372-176.866232 454.41786 454.41786 0 0 0-97.399069-144.455442 453.060465 453.060465 0 0 0-321.536-133.000931z m554.698418 544.625117l-29.767442 0.095256H546.125872V896l29.838883-0.095256a434.152186 434.152186 0 0 0 306.461768-127.166511 429.770419 429.770419 0 0 0 92.82679-137.549396 428.93693 428.93693 0 0 0 34.101582-168.364651v-30.077023h-0.095256z"  horiz-adv-x="1024" />

    
    <glyph glyph-name="complete" unicode="&#59682;" d="M0-128V512.213333L384.085333 896H1024L0-128z m47.018667 443.008l96.768-97.024c19.712-19.584 38.997333-19.882667 58.026666-0.853333l99.2 99.157333c17.194667 17.194667 20.608 34.602667 10.282667 52.394667a412.288 412.288 0 0 1-25.386667 36.522666c-7.424-4.224-14.592-7.68-21.589333-10.410666 11.562667-13.781333 20.053333-25.6 25.386667-35.413334 5.504-9.984 2.901333-20.266667-7.808-30.976l-91.904-91.904c-10.794667-10.794667-21.973333-10.496-33.408 0.896l-54.272 54.314667L213.76 403.2l11.392-11.392 15.701333 15.701333L154.026667 494.378667 3.882667 344.32l13.824-13.824 134.4 134.4 47.914666-47.914667-111.530666-111.488-25.472 25.514667-16-16z m153.173333 203.989333l34.304-34.389333 15.317333 15.274667-21.12 21.12 141.013334 141.013333 21.077333-21.034667 15.317333 15.317334-34.304 34.304-74.581333-74.624c-9.898667 3.84-22.016 8.021333-36.394667 12.501333l-7.808-21.290667c10.496-2.986667 19.498667-5.802667 27.008-8.405333l-79.786666-79.786667z m59.904-16.597333l13.013333-13.013333 131.413334 131.2-13.141334 13.098666-131.285333-131.285333z m15.402667-61.696l13.226666-13.013333 51.584 51.626666c27.989333-29.226667 27.989333-66.730667 0.170667-112.426666 8.832-1.408 16.512-2.901333 23.125333-4.48 29.098667 52.394667 26.197333 96.298667-8.533333 131.669333l33.536 33.536 41.6-41.6c15.872-15.914667 31.701333-16.128 47.189333-0.597333l30.421334 30.378666c13.269333 13.312 15.36 26.197333 6.485333 38.613334a312.618667 312.618667 0 0 1-21.589333 28.288c-8.533333-4.48-15.786667-8.106667-22.016-10.794667 10.24-11.008 17.706667-19.797333 22.4-26.496 4.693333-6.698667 2.901333-14.208-5.589334-22.698667l-19.797333-19.797333c-8.106667-8.106667-16.213333-8.021333-24.405333 0.170667l-39.509334 39.509333 60.202667 60.202667-13.226667 13.226666-175.274666-175.36z m333.610666 195.882667c7.594667 0.213333 14.805333 0 21.674667-0.469334 3.84 20.906667 5.333333 42.282667 4.522667 64.085334 15.36-4.906667 29.781333-6.4 43.093333-4.693334 12.586667 1.408 22.4 6.101333 29.482667 14.208 7.338667 8.789333 7.637333 18.986667 0.938666 30.378667a414.72 414.72 0 0 1-26.538666 38.826667 398.208 398.208 0 0 0-19.370667-8.96c8.576-10.581333 16.597333-21.248 23.893333-32.042667 4.096-7.424 4.608-12.714667 1.408-15.914667-8.704-8.704-26.88-8.32-54.613333 1.109334-3.712 33.706667-12.885333 68.48-27.52 104.490666l-20.906667-8.618666c12.928-28.501333 21.546667-56.874667 25.813334-85.290667-21.504 11.605333-49.493333 33.493333-84.181334 65.706667L590.592 863.146667 576.853333 877.013333 512.597333 812.8c-12.8 12.117333-23.594667 22.613333-32.298666 31.402667l-15.488-15.488c11.776-11.093333 22.784-21.333333 33.109333-30.72L413.013333 713.216l50.474667-50.517333c40.32-40.192 62.72-76.714667 67.328-109.397334 7.68-0.981333 15.274667-2.133333 22.613333-3.2-4.266667 37.12-27.434667 77.781333-69.632 122.026667l38.698667 38.656c16.384-17.365333 29.866667-32.298667 40.32-44.672 9.088-10.794667 9.984-19.797333 2.773333-27.008-5.888-5.802667-13.781333-12.373333-23.68-19.925333 6.997333-4.48 13.226667-8.576 18.474667-12.458667 9.002667 7.978667 16 14.506667 21.12 19.584 15.189333 15.189333 14.976 32.085333-0.682667 50.688a2043.306667 2043.306667 0 0 1-56.917333 62.805333L470.186667 686.08l-28.288 28.330667 70.4 70.4c42.24-39.594667 76.117333-65.024 101.589333-76.117334a282.197333 282.197333 0 0 0-4.778667-72.106666z m-105.514666 212.608c16.085333 3.498667 32.213333 6.101333 48.213333 8.021333L549.546667 877.226667c-15.488-2.56-31.488-6.058667-47.872-10.581334l1.877333-17.493333z"  horiz-adv-x="1024" />

    
    <glyph glyph-name="more1" unicode="&#59681;" d="M136.53105142 715.4699857200001h807.22421906a45.80337497 45.80337497 0 0 1 46.40605059 45.20069934A45.80337497 45.80337497 0 0 1 943.75527048 805.87138357H136.53105142A45.80337497 45.80337497 0 0 1 90.125 760.67068506c0-24.95078586 21.33472961-45.08016421 46.40605142-45.08016421z m807.82689469-224.43653842H378.20412271a45.80337497 45.80337497 0 0 1-46.40605143-45.20069852 45.80337497 45.80337497 0 0 1 46.40605143-45.08016421h566.1538234a45.80337497 45.80337497 0 0 1 46.40605142 45.08016421 46.16498034 46.16498034 0 0 1-46.40605142 45.20069852z m0-318.57452765H137.13372705a45.80337497 45.80337497 0 0 1-46.40605142-45.08016339 45.80337497 45.80337497 0 0 1 46.40605142-45.20069935h807.22421906a45.80337497 45.80337497 0 0 1 46.40605142 45.20069935 46.52658654 46.52658654 0 0 1-46.40605142 45.08016339z"  horiz-adv-x="1170" />

    
    <glyph glyph-name="associated-o" unicode="&#59679;" d="M512-128C229.248-128 0 101.248 0 384S229.248 896 512 896s512-229.248 512-512-229.248-512-512-512zM326.442667 510.762667l-26.453334-12.672c9.642667-11.861333 18.773333-25.344 27.562667-40.234667H270.208v-28.16h89.344v-6.570667a236.842667 236.842667 0 0 0-4.138667-35.84H254.506667v-28.16h92.629333a131.797333 131.797333 0 0 0-12.117333-23.125333c-14.933333-20.693333-43.306667-38.058667-85.76-51.84l15.701333-25.088c42.496 13.226667 73.088 32.256 91.818667 57.088 6.613333 9.386667 12.373333 20.096 17.365333 31.701333 16.256-37.802667 52.650667-68.394667 109.44-91.562666l17.109333 27.306666c-54.613333 18.773333-88.746667 43.818667-101.973333 75.52h95.104v28.16H384.853333a279.893333 279.893333 0 0 1 3.84 35.84v6.613334H477.866667v28.117333h-51.029334a247.466667 247.466667 0 0 1 21.76 47.146667l-28.074666 7.68a267.093333 267.093333 0 0 0-25.941334-54.826667H340.224l16 7.978667c-9.642667 16.256-19.584 31.146667-29.781333 44.928z m311.253333-55.936v-27.050667h50.773333v-10.197333c0-9.898667-0.597333-19.285333-1.706666-28.672h-53.461334v-27.562667H682.666667c-8.533333-38.016-26.752-65.877333-54.613334-82.986667l17.365334-23.424c28.672 18.773333 48.554667 47.146667 59.861333 84.906667 8.789333-27.562667 26.709333-55.424 53.76-83.541333l19.84 21.504c-30.336 28.16-49.365333 55.978667-56.789333 83.541333h52.352v27.562667H714.666667a356.693333 356.693333 0 0 1 1.664 35.285333v3.584h53.205333v27.050667h-34.986667a391.253333 391.253333 0 0 1 23.125334 46.848l-26.752 10.24a356.394667 356.394667 0 0 0-24.789334-57.088h-32l19.626667 13.781333a353.365333 353.365333 0 0 1-23.765333 42.154667l-22.016-14.08c9.898667-15.146667 17.92-29.184 23.978666-41.856h-34.218666z m-114.133333 48.512v-26.453334h13.781333v-161.024l-15.146667-2.218666 6.912-27.306667a1712.896 1712.896 0 0 1 63.957334 14.08v-43.818667h27.818666v51.541334c4.992 1.365333 10.24 2.773333 15.189334 4.437333v27.818667c-4.992-1.664-9.941333-3.285333-15.189334-4.949334V476.885333h14.634667v26.453334H523.52z m41.088-182.528v40.277333h28.416v-33.664l-28.416-6.613333z m0 66.176v31.445333h28.416v-31.445333h-28.416z m0 57.344v32.554666h28.416v-32.554666h-28.416z"  horiz-adv-x="1024" />

    
    <glyph glyph-name="save-o" unicode="&#59680;" d="M512-128C229.248-128 0 101.248 0 384S229.248 896 512 896s512-229.248 512-512-229.248-512-512-512zM303.018667 514.645333A302.506667 302.506667 0 0 0 244.053333 404.053333l9.386667-30.890666c8.277333 8.832 16.256 18.218667 23.722667 27.562666v-144.469333h29.226666V445.44c9.898667 17.92 17.92 36.693333 23.978667 56.234667l-27.306667 12.970666z m37.205333-13.781333v-93.184H392.96v-21.76h-73.386667v-28.16h48.298667a190.976 190.976 0 0 0-55.722667-61.738667l16.298667-25.941333c24.789333 20.992 45.738667 50.176 62.293333 87.68h2.218667v-101.162667h28.672v101.162667h1.92c16-34.730667 36.394667-63.957333 60.928-87.381333l18.773333 25.088a201.088 201.088 0 0 0-56.533333 62.293333h50.986667v28.16H421.589333v21.76h53.205334V500.864H340.224zM446.72 435.2H368.384v38.058667h78.293333v-38.058667z m86.826667 52.906667v-28.117334h59.818666a293.546667 293.546667 0 0 0-71.68-93.696l17.92-23.168c6.613333 6.058667 12.970667 12.117333 19.285334 18.773334v-105.386667h28.416v138.709333c14.890667 19.84 27.306667 41.642667 37.76 64.768h147.2v28.16h-136.448c2.474667 7.168 4.693333 14.592 6.912 22.314667l-29.226667 3.584a405.077333 405.077333 0 0 0-8.277333-25.898667h-71.68z m70.826666-130.389334v-27.818666h76.928v-33.109334c0-8.533333-4.138667-12.928-12.373333-12.928-10.752 0-20.693333 0.256-30.08 0.810667l7.466667-27.008h33.92c19.84 0 29.738667 10.197333 29.738666 30.293333v41.941334h65.92v27.818666h-65.92v9.642667c18.218667 12.416 34.218667 25.642667 48.256 39.424v26.453333h-132.864v-26.453333h97.024a307.626667 307.626667 0 0 0-41.088-27.818667v-21.248h-76.885333z"  horiz-adv-x="1024" />

    
    <glyph glyph-name="recommended-on" unicode="&#59678;" d="M116.4921875 588.20240312h791.015625v-426.18546172H116.4921875l112.90888282 213.09273047z m317.88510546-328.51222812h-0.13756796v10.93665077h101.6627039v24.34952423h-41.16720468v27.71993905h33.63536016v23.62729298h-33.63536016v24.34952421h33.63536016v23.73046875h-33.63536016v25.86277188h38.51902187v24.34952423h-36.31793515a381.54466719 381.54466719 0 0 1-12.2435461 39.68834921l-24.48709218-6.50008516a318.09145704 318.09145704 0 0 0 12.69064217-33.0163039h-34.08245624a315.51205858 315.51205858 0 0 1 11.93401874 33.77292812L426.02004062 483.4100289a234.55332891 234.55332891 0 0 0-40.03226874-83.6756961l4.47095781-13.72240156a339.72401484 339.72401484 0 0 0-19.50025469-8.97630781v39.82591719h21.66694922v24.65905233h-21.66694922v42.0613961h-25.55324375v-42.0613961h-28.4765625v-24.79662031h28.4765625v-49.18053671a318.84808047 318.84808047 0 0 0-33.01630469-8.25407656l6.328125-25.7939875c8.97630782 2.51061485 17.98700782 5.29636563 26.68817969 8.25407578v-48.38952032a7.91015625 7.91015625 0 0 0-8.97630782-8.87313202 143.07065233 143.07065233 0 0 0-18.74363124 1.78838282l5.60589298-24.52148438h21.83891014a22.629925 22.629925 0 0 1 25.79398751 25.10614843v64.48496952c6.67204454 2.78575078 13.30969766 5.60589297 19.80978281 8.56360392V385.28969922l3.98947031-12.2435461c4.84926954 6.05298907 9.73293125 12.38111407 14.58220078 18.74363125v-132.0652172z m1e-8 160.71373984h35.42374296v-25.79398751h-35.42374296z m0-74.08033282v24.34952422h35.42374296v-24.34952422z m0-51.34723202v27.75433124h35.42374296v-27.75433124z m175.74303671 173.98904608v0.13756719h-52.8260875v-23.18019687h52.86047892v-14.75416093h24.7622289c-1.89155937-4.40217421-3.81751016-8.83873985-6.01859765-13.41287345h-67.44267969v-23.18019688h53.54831874a233.28082578 233.28082578 0 0 0-62.73097812-57.70974843l15.8203125-20.94471874a333.60224218 333.60224218 0 0 1 26.6881789 20.22248671v-78.06980312h24.65905235v101.97223202a214.3308422 214.3308422 0 0 1 25.38128437 34.52955156h124.98046875v23.18019688h-113.63111484c1.47885547 3.54237422 2.95771094 7.35988437 4.47095859 11.34935469l-24.69344452 4.5741336v12.10597812h56.54042109v-15.06368829h25.79398751v15.06368829h52.8604789v23.18019765H718.35190233v14.61659297h-25.82837968v-14.61659297h-56.54042109v14.61659297h-25.79398828z m108.64427657-109.95117187c-10.18002733-6.05298907-18.02139922-10.9022586-23.489725-14.78855313v-10.14563516H631.68410312v-23.9024289h63.62517032v-22.1484375a6.19055703 6.19055703 0 0 0-6.80961327-6.77522109c-6.77522108 0-15.92348829 0.72223203-27.30723517 1.75399141l7.39427657-24.65905235h29.92102578a19.91295859 19.91295859 0 0 1 22.45796561 22.59553359v29.23318594h49.86837656v23.9024289h-49.86837656v3.98946955c13.1377375 9.73293125 24.48709219 18.29653516 34.52955157 25.79398827v18.02139923h-106.82150156v-22.87066876z"  horiz-adv-x="1024" />

    
    <glyph glyph-name="hot-fire" unicode="&#59673;" d="M719.399385 760.516923a470.567385 470.567385 0 0 0 252.534153-417.713231c0-259.780923-208.738462-470.094769-466.313846-470.094769C248.123077-127.291077 39.384615 83.101538 39.384615 342.803692c0 81.92 16.068923 149.110154 52.539077 216.221539-18.589538-111.458462 62.227692-146.904615 62.227693-146.904616S123.195077 632.044308 254.424615 716.8c-22.528-132.332308 67.662769-226.382769 67.66277-226.382769S239.379692 803.052308 548.864 896c0 0-90.584615-341.385846 127.842462-341.385846 4.489846 0 8.979692 0.157538 13.705846 0.472615 106.338462 6.537846 71.837538 179.2 28.987077 205.430154zM366.276923 133.750154V364.622769h-51.2v-77.272615h-75.539692v77.272615h-51.2v-230.793846h51.2v103.187692h75.618461v-103.187692h51.2z m233.708308 26.230154c19.140923 20.007385 28.750769 47.734154 28.750769 83.337846 0 35.603692-9.609846 63.566769-28.987077 83.731692-19.140923 20.086154-44.898462 30.089846-77.036308 30.089846-17.723077 0-33.319385-2.835692-47.02523-8.664615a85.070769 85.070769 0 0 1-28.199385-19.692308c-8.507077-8.822154-15.281231-19.062154-20.243692-30.168615-6.695385-15.202462-10.003692-33.870769-10.003693-56.398769 0-34.973538 9.531077-62.464 28.672-82.313847 19.062154-19.928615 44.898462-29.932308 77.351385-29.932307 31.980308 0 57.659077 10.003692 76.721231 30.011077z m-76.957539 159.192615c18.116923 0 32.689231-6.222769 43.638154-18.589538 10.948923-12.445538 16.462769-31.192615 16.462769-56.39877 0-25.442462-5.671385-44.504615-16.935384-57.26523a54.508308 54.508308 0 0 0-43.008-19.062154 55.926154 55.926154 0 0 0-43.480616 19.140923c-11.421538 12.918154-17.171692 31.744-17.171692 56.635077 0 25.284923 5.513846 44.268308 16.699077 56.713846a55.926154 55.926154 0 0 0 43.795692 18.904615z m297.275077-6.065231l0.315077 51.515077H647.561846l-0.315077-51.515077h64.590769l0.393847-179.357538H756.184615L755.790769 313.107692h64.590769z"  horiz-adv-x="1024" />

    
    <glyph glyph-name="ious-pay" unicode="&#59672;" d="M815.445333 137.443556H208.554667v101.262222h606.890666v-101.262222z m0 202.296888H208.554667V440.888889h606.890666v-101.148445z m0 202.296889H208.554667v101.148445h606.890666v-101.262222zM56.888889-115.484444l75.889778 75.889777 75.776-75.889777L284.444444-39.480889l75.889778-75.889778 75.776 75.889778L512-115.484444l75.889778 75.889777 75.776-75.889777L739.555556-39.480889l75.889777-75.889778 75.776 75.889778L967.111111-115.484444V896l-75.889778-75.889778L815.445333 896 739.555556 820.110222 663.665778 896l-75.776-75.889778L512 896l-75.889778-75.889778L360.334222 896 284.444444 820.110222 208.554667 896 132.778667 820.110222 56.888889 896v-1011.370667z"  horiz-adv-x="1024" />

    
    <glyph glyph-name="recommended" unicode="&#59671;" d="M1024 437.992727v-480.256l-85.736727-85.597091v171.333819L171.473455 810.263273H0L85.736727 896h480.232728zM539.927273 665.902545h-0.023273l1.093818 1.117091a84.782545 84.782545 0 0 1 6.912 8.424728l8.541091 8.541091-3.141818 1.349818a171.682909 171.682909 0 0 0-15.825455 8.285091l-8.936727 5.352727 38.4 38.423273 20.712727-20.689455 16.290909 16.290909-20.712727 20.712727L618.519273 788.945455l-17.058909 17.058909-35.234909-35.234909-22.993455 22.970181-16.290909-16.290909 22.970182-22.970182-42.356364-42.402909a242.664727 242.664727 0 0 0-28.881454 17.454546l-1.768728 1.233454-16.989091-20.736 2.606546-1.303272c9.192727-4.608 18.315636-9.495273 27.136-14.522182l-49.384727-49.408a4.840727 4.840727 0 0 0-3.421091-2.210909 10.472727 10.472727 0 0 0-6.912 3.956363 95.650909 95.650909 0 0 0-6.888728 8.424728l-8.541091 8.541091-1.62909-1.629091a18.804364 18.804364 0 0 1-3.351273-4.957091 89.739636 89.739636 0 0 0-9.681455-12.683637l-1.629091-1.629091 1.629091-1.62909a172.8 172.8 0 0 1 16.802909-15.26691 26.018909 26.018909 0 0 1 19.362909-9.937454 30.138182 30.138182 0 0 1 20.736 11.403636l54.69091 54.690909q3.886545-2.234182 11.310545-5.934545a98.443636 98.443636 0 0 1 15.732364-9.402182z m53.853091-194.373818l13.986909 14.010182-49.035637 49.035636 25.856 25.832728 43.682909-43.659637 15.52291 15.522909-43.68291 43.659637 25.832728 25.856 43.682909-43.682909 15.546182 15.546182-43.682909 43.659636 25.832727 25.832727 45.986909-45.940363 15.522909 15.522909-47.266909 47.266909 18.897454-4.887273 0.535273 2.304a360.727273 360.727273 0 0 1 6.935273 40.866909l0.232727 2.024727-22.807273 5.701819-0.395636-2.513455a279.970909 279.970909 0 0 0-8.704-38.190545l-39.121454 39.121454 42.58909 14.196364-10.519272 22.016-2.048-0.907637a349.812364 349.812364 0 0 0-108.846546-28.16l-1.931636-0.186181-0.162909-1.931637c-0.512-6.632727-0.768-13.149091-0.768-19.339636v-2.816l2.769454 0.558545c2.513455 0.488727 6.539636 1.000727 12.264728 1.536l4.002909 0.791273-113.477818-113.454545 17.082181-17.082182 13.777455 13.800727z m226.792727-159.348363l15.522909 15.522909-45.428364 45.428363 59.810909-9.588363 14.731637 14.731636-100.561455 100.561455-16.290909-16.290909 71.959273-71.959273-40.331636 8.610909-7.68-7.68-57.483637 57.437091-15.522909-15.522909 57.483636-57.460364-19.944727-19.944727a11.938909 11.938909 0 0 0-7.982545-4.933818 10.170182 10.170182 0 0 0-7.237818 3.653818 816.826182 816.826182 0 0 0-21.992728 23.621818l-11.170909 11.170909-1.559273-2.304c-4.561455-6.539636-8.890182-12.427636-12.939636-17.477818l-1.303273-1.629091 1.466182-1.466182c13.684364-13.661091 24.040727-23.505455 30.650182-29.090909a35.211636 35.211636 0 0 1 24.832-12.357818 31.464727 31.464727 0 0 1 22.109091 11.566545l22.109091 22.109091z m104.192 102.656l16.290909 16.290909-48.267636 48.267636 16.872727 16.872727-17.058909 17.058909-16.872727-16.872727-48.058182 48.081455 16.849454 16.849454-17.826909 17.826909-16.849454-16.849454-49.035637 49.035636-16.290909-16.290909 49.035637-49.035636-12.264728-12.264728 7.028364-7.028363c-3.211636-1.024-6.283636-1.908364-9.192727-2.676364l-52.037819 52.037818-17.058909-17.058909 42.449455-42.426182a318.138182 318.138182 0 0 0-101.818182-7.354181l-2.490182 0.186181v-2.490181a63.604364 63.604364 0 0 0-1.512727-10.472728 30.557091 30.557091 0 0 0-2.094545-9.192727l-1.559273-3.165091 3.514182-0.162909c17.128727-0.907636 33.186909-1.024 47.848727-0.349091l-68.608-68.608 17.058909-17.058909 89.204364 89.204364a324.538182 324.538182 0 0 1 41.146181 8.773818l114.059637-114.059636 17.058909 17.058909-105.611636 105.611636a38.865455 38.865455 0 0 0 6.888727 1.652364l4.072727 0.581818-8.843636 10.821818 10.589091 10.612364 48.058181-48.081455-14.545454-14.545454 17.058909-17.05891 14.545455 14.545455z m-383.092364 136.797091l-35.816727 35.793454 25.856 25.832727 35.816727-35.793454z m41.378909 41.355636l-35.816727 35.816727 25.832727 25.832727 35.84-35.793454z m41.378909 41.378909l-35.816727 35.816727 25.832727 25.832728 35.84-35.793455z"  horiz-adv-x="1024" />

    
    <glyph glyph-name="hot" unicode="&#59669;" d="M618.84416 212.56192a77.12768 77.12768 0 0 1-43.90912-11.01824v-4.32128H0l55.35744 332.10368 519.5776-0.6144c16.34304 0.34816 65.00352 1.26976 81.22368-0.14336a141.9264 141.9264 0 0 0 40.93952-9.35936 123.904 123.904 0 0 1 38.85056-3.3792 74.28096 74.28096 0 0 0-54.8864-25.76384c-42.57792-5.67296-52.81792-12.82048-52.81792-19.61984 0-6.7584 2.00704-14.37696 19.31264-16.97792 17.3056-2.58048 25.27232 7.3728 39.23968 12.75904 13.98784 5.38624-6.61504 11.01824 12.04224 11.01824a180.14208 180.14208 0 0 0 61.1328-21.17632 294.83008 294.83008 0 0 1 64.4096-16.05632c16.67072-1.24928 53.08416 2.82624 77.90592 1.2288-5.3248-16.15872-103.50592-54.5792-141.0048-53.69856-37.51936 0.90112-44.15488-10.752-44.15488-17.57184s-5.3248-17.8176 16.62976-17.8176a325.4272 325.4272 0 0 1 73.97376 20.0704 685.44512 685.44512 0 0 0 132.66944 14.4384A125.68576 125.68576 0 0 0 1024 348.5696a630.9888 630.9888 0 0 1-104.89856-6.28736 658.16576 658.16576 0 0 1-152.94464-60.14976 92.24192 92.24192 0 0 0-56.38144-23.16288c-28.20096-3.64544-83.10784 18.944-94.55616 21.77024a24.08448 24.08448 0 0 1-31.88736-18.1248c-6.30784-19.82464 50.4832-16.67072 69.75488-22.6304 19.23072-5.98016 30.5152-31.9488 30.5152-31.9488a459.03872 459.03872 0 0 1-64.75776 4.54656zM92.30336 444.25216v-177.84832h27.15648V346.112h93.16352v-79.70816h27.15648v177.84832h-27.15648v-74.9568H119.45984v74.9568z m261.03808 3.4816a79.93344 79.93344 0 0 1-64-26.64448 95.80544 95.80544 0 0 1-22.17984-66.00704 95.58016 95.58016 0 0 1 22.17984-65.7408 81.36704 81.36704 0 0 1 64-26.4192 81.92 81.92 0 0 1 64.02048 26.15296 95.92832 95.92832 0 0 1 22.4256 66.00704 95.72352 95.72352 0 0 1-22.4256 66.2528 81.26464 81.26464 0 0 1-64.02048 26.4192z m0-23.90016a53.41184 53.41184 0 0 0 43.84768-18.432 77.23008 77.23008 0 0 0 15.19616-50.31936 75.776 75.776 0 0 0-15.19616-49.80736 54.14912 54.14912 0 0 0-43.8272-18.432 54.5792 54.5792 0 0 0-44.09344 18.92352 75.6736 75.6736 0 0 0-14.9504 49.31584 75.93984 75.93984 0 0 0 14.9504 49.5616 53.28896 53.28896 0 0 0 44.07296 19.18976z m100.1472 20.41856v-23.16288h59.51488v-154.68544h26.91072v154.68544h59.2896v23.16288z"  horiz-adv-x="1024" />

    
    <glyph glyph-name="ascending-sort" unicode="&#59664;" d="M369.9712 544.256c-4.608 4.4032-18.432 8.704-32.3584 8.704H111.0016l208.0768 230.1952c13.9264 17.408 27.7504 30.3104 32.4608 39.0144 4.608 8.704 9.216 17.408 9.216 30.4128C360.7552 878.592 346.8288 896 314.368 896H64.7168C50.8928 896 41.5744 891.6992 32.3584 887.296a32.1536 32.1536 0 0 1-9.216-21.7088c0-8.704 4.608-17.408 9.216-21.7088 4.608-4.3008 18.432-8.704 32.3584-8.704h189.6448L32.3584 587.776c-4.608-4.3008-4.608-8.6016-9.216-17.408-4.608-8.6016-9.216-8.6016-9.216-12.9024-4.7104-4.4032-4.7104-8.704-4.7104-8.704v-13.0048c0-13.1072 4.608-26.112 13.9264-30.4128 9.216-8.704 23.1424-13.0048 41.5744-13.0048h282.112a70.0416 70.0416 0 0 1 32.4608 8.6016c9.216 4.4032 9.216 13.1072 9.216 21.7088-9.216 8.704-13.9264 17.408-18.432 21.7088z m74.6496-247.5008h175.7184V869.9904c0 17.408 13.9264 26.0096 27.7504 26.0096h101.7856c13.824 0 27.648-13.0048 27.648-26.0096v-573.2352h171.2128c23.1424 0 32.3584-30.3104 18.432-47.7184L717.6192-15.872a22.4256 22.4256 0 0 0-37.0688 0L430.6944 249.0368a26.0096 26.0096 0 0 0 13.9264 47.7184zM277.504 305.8688l111.0016-260.5056c9.216-21.7088 13.824-34.816 13.824-43.4176 0-8.704-4.608-17.408-9.216-26.112a43.3152 43.3152 0 0 0-32.3584-13.0048c-9.216 0-13.9264 0-18.432 4.3008-4.7104 0-9.3184 4.4032-13.9264 8.704 0 4.4032-4.608 8.704-9.216 17.408-4.7104 8.704-9.216 17.408-13.9264 21.7088l-18.432 52.1216H110.8992l-18.432-52.224c-9.3184-21.6064-18.5344-38.912-23.2448-43.3152-4.608-4.4032-13.824-8.704-27.648-8.704-9.216 0-18.5344 4.3008-27.8528 13.0048C4.608-15.36 0-6.7584 0 2.048c0 4.3008 4.608 13.0048 4.608 17.408 0 4.3008 4.608 12.9024 9.216 21.6064L124.928 305.8688c4.7104 8.704 4.7104 17.408 9.216 26.0096a69.2224 69.2224 0 0 0 13.9264 26.112c4.608 8.6016 13.9264 13.0048 18.432 21.7088C175.8208 384 185.1392 384 198.9632 384c13.9264 0 23.1424-4.3008 32.3584-8.704 4.608-4.3008 13.9264-8.704 18.432-17.408 4.7104-4.3008 9.3184-13.0048 13.9264-21.6064 0-8.704 4.7104-17.408 13.9264-30.4128zM147.968 127.7952v4.4032H277.504l-64.7168 164.864-64.8192-169.2672z"  horiz-adv-x="1024" />

    
    <glyph glyph-name="virus-on" unicode="&#59663;" d="M903.791 432.974c-4.452 22.26-8.904 48.974-17.808 71.235 22.26 22.26 35.617 53.426 35.617 89.043 0 66.783-53.426 124.661-124.66 124.661-22.262 0-44.523-4.452-62.331-17.809-35.618 22.261-71.235 40.07-111.305 53.426 0 71.235-57.878 124.661-124.66 124.661s-124.661-57.878-124.661-124.66c-40.07-13.357-80.14-31.166-115.757-57.879-17.809 13.357-44.522 22.261-71.235 22.261-66.782 0-124.66-53.426-124.66-124.66 0-40.07 22.26-75.688 53.426-97.949-8.905-22.26-13.357-44.521-13.357-66.782-57.878-13.357-97.948-62.33-97.948-120.209 0-66.783 53.426-124.66 124.661-124.66h4.452c22.261-40.07 44.522-75.688 75.687-102.4-13.356-22.262-17.809-44.523-17.809-66.783 0-66.783 53.427-124.661 124.661-124.661 31.166 0 57.879 8.904 80.14 26.713 17.808 13.356 26.713 26.713 35.617 44.521 22.26-4.452 48.974-8.904 75.687-8.904 31.165 0 57.878 4.452 89.043 8.904 22.261-44.521 66.783-75.686 115.757-75.686 66.782 0 124.66 57.878 115.756 124.66 0 26.713-8.904 53.426-26.713 75.687 26.713 31.166 48.974 62.33 66.783 97.948h17.809c66.782 0 124.66 53.426 124.66 124.661 0 62.33-44.521 115.757-106.852 124.66z m-467.478-307.2c-57.878 0-106.852 48.974-106.852 106.852 0 57.878 48.974 106.852 106.852 106.852s106.852-48.974 106.852-106.852c0-57.878-48.974-106.852-106.852-106.852z m0 271.583c-57.878 0-106.852 48.973-106.852 106.852S378.435 611.06 436.313 611.06s106.852-48.974 106.852-106.852-48.974-106.852-106.852-106.852z m231.513-120.21c-57.878 0-106.852 48.975-106.852 106.853s48.974 106.852 106.852 106.852S774.678 441.878 774.678 384s-48.974-106.852-106.852-106.852z"  horiz-adv-x="1024" />

    
    <glyph glyph-name="virus" unicode="&#59553;" d="M436.313043 397.356522c-57.878261 0-106.852174 48.973913-106.852173 106.852174s48.973913 106.852174 106.852173 106.852174 106.852174-48.973913 106.852174-106.852174-48.973913-106.852174-106.852174-106.852174z m0 160.278261c-31.165217 0-53.426087-26.713043-53.426086-53.426087S405.147826 450.782609 436.313043 450.782609 489.73913 473.043478 489.73913 504.208696s-26.713043 53.426087-53.426087 53.426087z m0-431.86087c-57.878261 0-106.852174 48.973913-106.852173 106.852174s48.973913 106.852174 106.852173 106.852174 106.852174-48.973913 106.852174-106.852174-48.973913-106.852174-106.852174-106.852174z m0 164.730435c-31.165217 0-53.426087-26.713043-53.426086-53.426087S409.6 183.652174 436.313043 183.652174s53.426087 26.713043 53.426087 53.426087-26.713043 53.426087-53.426087 53.426087z m231.513044-13.356522c-57.878261 0-106.852174 48.973913-106.852174 106.852174s48.973913 106.852174 106.852174 106.852174 106.852174-48.973913 106.852174-106.852174-48.973913-106.852174-106.852174-106.852174z m0 160.278261c-31.165217 0-53.426087-26.713043-53.426087-53.426087s26.713043-53.426087 53.426087-53.426087 53.426087 26.713043 53.426087 53.426087-22.26087 53.426087-53.426087 53.426087zM712.347826-114.643478c-48.973913 0-93.495652 31.165217-115.756522 75.686956-31.165217-4.452174-57.878261-8.904348-89.043478-8.904348-26.713043 0-53.426087 4.452174-75.686956 8.904348-8.904348-17.808696-17.808696-31.165217-35.617392-44.521739-22.26087-17.808696-48.973913-26.713043-80.13913-26.713043-71.234783 0-124.66087 57.878261-124.66087 124.660869 0 22.26087 4.452174 44.521739 17.808696 66.782609C178.086957 107.965217 155.826087 143.582609 133.565217 183.652174h-4.452174C57.878261 183.652174 4.452174 241.530435 4.452174 308.313043c0 57.878261 40.069565 106.852174 97.947826 120.208696 0 22.26087 4.452174 44.521739 13.356522 66.782609-31.165217 22.26087-53.426087 57.878261-53.426087 97.947826C62.330435 664.486957 120.208696 717.913043 186.991304 717.913043c26.713043 0 53.426087-8.904348 71.234783-22.260869 35.617391 26.713043 75.686957 44.521739 115.756522 57.878261C373.982609 820.313043 431.86087 878.191304 498.643478 878.191304S623.304348 824.765217 623.304348 753.530435c40.069565-13.356522 75.686957-31.165217 111.304348-53.426087 17.808696 13.356522 40.069565 17.808696 62.330434 17.808695 71.234783 0 124.66087-57.878261 124.66087-124.660869 0-35.617391-13.356522-66.782609-35.617391-89.043478 8.904348-22.26087 13.356522-48.973913 17.808695-71.234783 62.330435-8.904348 106.852174-62.330435 106.852174-124.66087 0-71.234783-57.878261-124.66087-124.660869-124.660869h-17.808696c-17.808696-35.617391-40.069565-66.782609-66.782609-97.947826 17.808696-22.26087 26.713043-48.973913 26.713044-75.686957 8.904348-66.782609-48.973913-124.66087-115.756522-124.660869z m-80.13913 142.469565l4.452174-26.713044c4.452174-35.617391 35.617391-57.878261 71.234782-57.87826 40.069565 0 71.234783 31.165217 71.234783 71.234782 0 22.26087-8.904348 40.069565-26.713044 53.426087l-22.260869 17.808696 22.260869 22.260869c35.617391 35.617391 62.330435 75.686957 80.139131 120.208696l8.904348 22.26087 22.260869-8.904348c8.904348-4.452174 17.808696-4.452174 22.26087-4.452174 40.069565 0 71.234783 31.165217 71.234782 71.234782 0 40.069565-31.165217 71.234783-71.234782 71.234783h-31.165218l8.904348 26.713044c-4.452174 35.617391-13.356522 66.782609-26.713043 97.947826l-8.904348 17.808695 17.808695 13.356522c17.808696 13.356522 31.165217 35.617391 31.165218 57.878261 0 40.069565-31.165217 71.234783-71.234783 71.234783-17.808696 0-35.617391-4.452174-48.973913-17.808696l-17.808695-13.356522-17.808696 13.356522c-40.069565 31.165217-80.13913 48.973913-129.113044 62.330435l-17.808695 8.904347 4.452174 22.26087v13.356522c0 40.069565-31.165217 71.234783-71.234783 71.234782s-75.686957-31.165217-75.686956-71.234782v-13.356522l4.452173-22.26087-22.260869-4.452173c-48.973913-13.356522-93.495652-40.069565-133.565217-71.234783l-22.26087-13.356522-17.808696 17.808696c-13.356522 13.356522-31.165217 22.26087-48.973913 22.260869-40.069565 0-71.234783-31.165217-71.234782-71.234782-4.452174-31.165217 13.356522-57.878261 40.069565-66.782609l17.808696-13.356522-8.904348-22.260869c-13.356522-26.713043-17.808696-57.878261-22.26087-89.043478l-4.452174-22.26087h-22.260869c-40.069565-4.452174-66.782609-35.617391-66.782609-71.234783 0-40.069565 31.165217-71.234783 71.234783-71.234782h17.808695l22.26087 4.452174 8.904348-22.26087c17.808696-44.521739 48.973913-89.043478 89.043478-124.660869l17.808696-17.808696-17.808696-17.808696c-13.356522-13.356522-22.26087-31.165217-22.26087-48.973913 0-40.069565 31.165217-71.234783 71.234783-71.234782 35.617391 0 62.330435 22.26087 71.234783 57.87826l4.452173 26.713044 26.713044-4.452174c26.713043-8.904348 57.878261-8.904348 89.043478-8.904348 35.617391 0 66.782609 4.452174 97.947826 13.356522h31.165218z"  horiz-adv-x="1024" />

    
    </font>
</defs>
</svg>
